<svg width="12" height="16" viewBox="0 0 12 16" fill="none" xmlns="http://www.w3.org/2000/svg">
<path d="M2.25 0.5H9.75C10.3467 0.5 10.919 0.737053 11.341 1.15901C11.7629 1.58097 12 2.15326 12 2.75V13.25C12 13.8467 11.7629 14.419 11.341 14.841C10.919 15.2629 10.3467 15.5 9.75 15.5H2.25C1.65326 15.5 1.08097 15.2629 0.65901 14.841C0.237053 14.419 0 13.8467 0 13.25L0 2.75C0 2.15326 0.237053 1.58097 0.65901 1.15901C1.08097 0.737053 1.65326 0.5 2.25 0.5ZM2.25 2C2.05109 2 1.86032 2.07902 1.71967 2.21967C1.57902 2.36032 1.5 2.55109 1.5 2.75V13.25C1.5 13.4489 1.57902 13.6397 1.71967 13.7803C1.86032 13.921 2.05109 14 2.25 14H9.75C9.94891 14 10.1397 13.921 10.2803 13.7803C10.421 13.6397 10.5 13.4489 10.5 13.25V2.75C10.5 2.55109 10.421 2.36032 10.2803 2.21967C10.1397 2.07902 9.94891 2 9.75 2H2.25ZM3.75 2.75H8.25C8.44891 2.75 8.63968 2.82902 8.78033 2.96967C8.92098 3.11032 9 3.30109 9 3.5C9 3.69891 8.92098 3.88968 8.78033 4.03033C8.63968 4.17098 8.44891 4.25 8.25 4.25H3.75C3.55109 4.25 3.36032 4.17098 3.21967 4.03033C3.07902 3.88968 3 3.69891 3 3.5C3 3.30109 3.07902 3.11032 3.21967 2.96967C3.36032 2.82902 3.55109 2.75 3.75 2.75ZM3.75 11.75H5.25C5.44891 11.75 5.63968 11.829 5.78033 11.9697C5.92098 12.1103 6 12.3011 6 12.5C6 12.6989 5.92098 12.8897 5.78033 13.0303C5.63968 13.171 5.44891 13.25 5.25 13.25H3.75C3.55109 13.25 3.36032 13.171 3.21967 13.0303C3.07902 12.8897 3 12.6989 3 12.5C3 12.3011 3.07902 12.1103 3.21967 11.9697C3.36032 11.829 3.55109 11.75 3.75 11.75ZM3.75 8.75H8.25C8.44891 8.75 8.63968 8.82902 8.78033 8.96967C8.92098 9.11032 9 9.30109 9 9.5C9 9.69891 8.92098 9.88968 8.78033 10.0303C8.63968 10.171 8.44891 10.25 8.25 10.25H3.75C3.55109 10.25 3.36032 10.171 3.21967 10.0303C3.07902 9.88968 3 9.69891 3 9.5C3 9.30109 3.07902 9.11032 3.21967 8.96967C3.36032 8.82902 3.55109 8.75 3.75 8.75ZM3.75 5.75H8.25C8.44891 5.75 8.63968 5.82902 8.78033 5.96967C8.92098 6.11032 9 6.30109 9 6.5C9 6.69891 8.92098 6.88968 8.78033 7.03033C8.63968 7.17098 8.44891 7.25 8.25 7.25H3.75C3.55109 7.25 3.36032 7.17098 3.21967 7.03033C3.07902 6.88968 3 6.69891 3 6.5C3 6.30109 3.07902 6.11032 3.21967 5.96967C3.36032 5.82902 3.55109 5.75 3.75 5.75Z" fill="#FEFEFE" fill-opacity="0.85"/>
</svg>
