<svg width="24" height="20" viewBox="0 0 24 20" fill="none" xmlns="http://www.w3.org/2000/svg">
<path d="M24 10.0001C24 10.5606 23.5896 11.0238 23.0571 11.0971L22.9091 11.1072L3.73236 11.1064L10.6603 18.1084C11.0873 18.5398 11.0888 19.2408 10.6637 19.6741C10.2772 20.0679 9.67123 20.105 9.24347 19.7844L9.12089 19.6774L0.320892 10.7853C0.264614 10.7284 0.215733 10.6668 0.174246 10.6018C0.162529 10.5823 0.1506 10.5623 0.139292 10.5419C0.128891 10.5244 0.119493 10.5062 0.110626 10.4878C0.0983105 10.4611 0.086277 10.4335 0.0753536 10.4053C0.0664768 10.3836 0.0590649 10.3624 0.0523033 10.3411C0.0442657 10.3147 0.0364571 10.2866 0.0297394 10.258C0.0247459 10.238 0.020792 10.2188 0.0173416 10.1996C0.0124912 10.1709 0.00836182 10.1412 0.00541496 10.1112C0.00287056 10.0882 0.00133896 10.0655 0.000494003 10.0428C0.000274658 10.0291 0 10.0146 0 10.0001L0.000545502 9.95726C0.00138283 9.93553 0.00284386 9.91382 0.00493431 9.89217L0 10.0001C0 9.93028 0.00637627 9.86193 0.0185699 9.79566C0.0213985 9.77983 0.0247688 9.76358 0.0284996 9.7474C0.0362492 9.71407 0.0452042 9.68198 0.0555172 9.65052C0.0605774 9.63488 0.066473 9.61818 0.0727749 9.6016C0.0855236 9.56829 0.0993805 9.53654 0.114624 9.5056C0.121704 9.49106 0.129637 9.47583 0.137941 9.46076C0.151575 9.43617 0.165619 9.4128 0.18047 9.39003C0.190947 9.37391 0.202549 9.35713 0.214666 9.34061L0.224106 9.32785C0.253498 9.28889 0.285381 9.25196 0.319519 9.21731L0.320827 9.21629L9.12083 0.322641C9.54773 -0.10881 10.2385 -0.107358 10.6636 0.325882C11.0501 0.719738 11.0841 1.33486 10.7663 1.7676L10.6604 1.89154L3.73527 8.89217L22.9091 8.89305C23.5116 8.89305 24 9.38872 24 10.0001Z" fill="black"/>
</svg>
