<svg width="16" height="16" viewBox="0 0 16 16" fill="none" xmlns="http://www.w3.org/2000/svg">
<path d="M7.25 10.25V8.75C6.65326 8.75 6.08097 8.51295 5.65901 8.09099C5.23705 7.66903 5 7.09674 5 6.5C5 5.90326 5.23705 5.33097 5.65901 4.90901C6.08097 4.48705 6.65326 4.25 7.25 4.25V3.5C7.25 3.30109 7.32902 3.11032 7.46967 2.96967C7.61032 2.82902 7.80109 2.75 8 2.75C8.19891 2.75 8.38968 2.82902 8.53033 2.96967C8.67098 3.11032 8.75 3.30109 8.75 3.5V4.25H8.7665C9.35886 4.25 9.92696 4.48531 10.3458 4.90418C10.7647 5.32304 11 5.89114 11 6.4835C11 6.68241 10.921 6.87318 10.7803 7.01383C10.6397 7.15448 10.4489 7.2335 10.25 7.2335C10.0511 7.2335 9.86032 7.15448 9.71967 7.01383C9.57902 6.87318 9.5 6.68241 9.5 6.4835C9.5 6.28896 9.42272 6.1024 9.28516 5.96484C9.1476 5.82728 8.96104 5.75 8.7665 5.75H8.75V7.25C9.34674 7.25 9.91903 7.48705 10.341 7.90901C10.7629 8.33097 11 8.90326 11 9.5C11 10.0967 10.7629 10.669 10.341 11.091C9.91903 11.5129 9.34674 11.75 8.75 11.75V12.5C8.75 12.6989 8.67098 12.8897 8.53033 13.0303C8.38968 13.171 8.19891 13.25 8 13.25C7.80109 13.25 7.61032 13.171 7.46967 13.0303C7.32902 12.8897 7.25 12.6989 7.25 12.5V11.75H7.21175C6.62516 11.75 6.06259 11.517 5.64781 11.1022C5.23302 10.6874 5 10.1248 5 9.53825C5 9.33934 5.07902 9.14857 5.21967 9.00792C5.36032 8.86727 5.55109 8.78825 5.75 8.78825C5.94891 8.78825 6.13968 8.86727 6.28033 9.00792C6.42098 9.14857 6.5 9.33934 6.5 9.53825C6.5002 9.72696 6.57525 9.90788 6.70869 10.0413C6.84212 10.1748 7.02304 10.2498 7.21175 10.25H7.25ZM8.75 10.25C8.94891 10.25 9.13968 10.171 9.28033 10.0303C9.42098 9.88968 9.5 9.69891 9.5 9.5C9.5 9.30109 9.42098 9.11032 9.28033 8.96967C9.13968 8.82902 8.94891 8.75 8.75 8.75V10.25ZM7.25 5.75C7.05109 5.75 6.86032 5.82902 6.71967 5.96967C6.57902 6.11032 6.5 6.30109 6.5 6.5C6.5 6.69891 6.57902 6.88968 6.71967 7.03033C6.86032 7.17098 7.05109 7.25 7.25 7.25V5.75ZM8 15.5C3.85775 15.5 0.5 12.1423 0.5 8C0.5 3.85775 3.85775 0.5 8 0.5C12.1423 0.5 15.5 3.85775 15.5 8C15.5 12.1423 12.1423 15.5 8 15.5ZM8 14C9.5913 14 11.1174 13.3679 12.2426 12.2426C13.3679 11.1174 14 9.5913 14 8C14 6.4087 13.3679 4.88258 12.2426 3.75736C11.1174 2.63214 9.5913 2 8 2C6.4087 2 4.88258 2.63214 3.75736 3.75736C2.63214 4.88258 2 6.4087 2 8C2 9.5913 2.63214 11.1174 3.75736 12.2426C4.88258 13.3679 6.4087 14 8 14Z" fill="#FEFEFE" fill-opacity="0.85"/>
</svg>
