<svg width="17" height="17" viewBox="0 0 17 17" fill="none" xmlns="http://www.w3.org/2000/svg">
<path d="M10.971 8.84997L16.2735 3.54597C16.4167 3.4076 16.531 3.24209 16.6096 3.05908C16.6882 2.87607 16.7296 2.67924 16.7313 2.48008C16.7331 2.28091 16.6951 2.08339 16.6197 1.89904C16.5443 1.7147 16.4329 1.54722 16.2921 1.40638C16.1512 1.26554 15.9837 1.15416 15.7994 1.07874C15.6151 1.00332 15.4175 0.965367 15.2184 0.967098C15.0192 0.968828 14.8224 1.01021 14.6394 1.08882C14.4564 1.16743 14.2908 1.28171 14.1525 1.42497L8.84847 6.72747L3.54597 1.42497C3.4076 1.28171 3.24209 1.16743 3.05908 1.08882C2.87607 1.01021 2.67924 0.968828 2.48008 0.967098C2.28091 0.965367 2.08339 1.00332 1.89904 1.07874C1.7147 1.15416 1.54722 1.26554 1.40638 1.40638C1.26554 1.54722 1.15416 1.7147 1.07874 1.89904C1.00332 2.08339 0.965367 2.28091 0.967098 2.48008C0.968828 2.67924 1.01021 2.87607 1.08882 3.05908C1.16743 3.24209 1.28171 3.4076 1.42497 3.54597L6.72747 8.84847L1.42497 14.1525C1.28171 14.2908 1.16743 14.4564 1.08882 14.6394C1.01021 14.8224 0.968828 15.0192 0.967098 15.2184C0.965367 15.4175 1.00332 15.6151 1.07874 15.7994C1.15416 15.9837 1.26554 16.1512 1.40638 16.2921C1.54722 16.4329 1.7147 16.5443 1.89904 16.6197C2.08339 16.6951 2.28091 16.7331 2.48008 16.7313C2.67924 16.7296 2.87607 16.6882 3.05908 16.6096C3.24209 16.531 3.4076 16.4167 3.54597 16.2735L8.84847 10.971L14.1525 16.2735C14.2908 16.4167 14.4564 16.531 14.6394 16.6096C14.8224 16.6882 15.0192 16.7296 15.2184 16.7313C15.4175 16.7331 15.6151 16.6951 15.7994 16.6197C15.9837 16.5443 16.1512 16.4329 16.2921 16.2921C16.4329 16.1512 16.5443 15.9837 16.6197 15.7994C16.6951 15.6151 16.7331 15.4175 16.7313 15.2184C16.7296 15.0192 16.6882 14.8224 16.6096 14.6394C16.531 14.4564 16.4167 14.2908 16.2735 14.1525L10.971 8.84997Z" fill="white"/>
</svg>
