<svg width="12" height="16" viewBox="0 0 12 16" fill="none" xmlns="http://www.w3.org/2000/svg">
<path d="M9.75 4.25H8.25C8.25 3.95453 8.1918 3.66194 8.07873 3.38896C7.96566 3.11598 7.79992 2.86794 7.59099 2.65901C7.38206 2.45008 7.13402 2.28434 6.86104 2.17127C6.58806 2.0582 6.29547 2 6 2C5.70453 2 5.41194 2.0582 5.13896 2.17127C4.86598 2.28434 4.61794 2.45008 4.40901 2.65901C4.20008 2.86794 4.03434 3.11598 3.92127 3.38896C3.8082 3.66194 3.75 3.95453 3.75 4.25V8H9.75C10.1478 8 10.5294 8.15804 10.8107 8.43934C11.092 8.72064 11.25 9.10218 11.25 9.5V14C11.25 14.3978 11.092 14.7794 10.8107 15.0607C10.5294 15.342 10.1478 15.5 9.75 15.5H2.25C1.85218 15.5 1.47064 15.342 1.18934 15.0607C0.908035 14.7794 0.75 14.3978 0.75 14V9.5C0.75 9.10218 0.908035 8.72064 1.18934 8.43934C1.47064 8.15804 1.85218 8 2.25 8V4.25C2.25 3.25544 2.64509 2.30161 3.34835 1.59835C4.05161 0.895088 5.00544 0.5 6 0.5C6.99456 0.5 7.94839 0.895088 8.65165 1.59835C9.35491 2.30161 9.75 3.25544 9.75 4.25ZM6 13.25C6.39782 13.25 6.77936 13.092 7.06066 12.8107C7.34196 12.5294 7.5 12.1478 7.5 11.75C7.5 11.3522 7.34196 10.9706 7.06066 10.6893C6.77936 10.408 6.39782 10.25 6 10.25C5.60218 10.25 5.22064 10.408 4.93934 10.6893C4.65804 10.9706 4.5 11.3522 4.5 11.75C4.5 12.1478 4.65804 12.5294 4.93934 12.8107C5.22064 13.092 5.60218 13.25 6 13.25Z" fill="#FEFEFE" fill-opacity="0.85"/>
</svg>
