<svg width="13" height="13" viewBox="0 0 13 13" fill="none" xmlns="http://www.w3.org/2000/svg">
<path fill-rule="evenodd" clip-rule="evenodd" d="M12.5 11.6261C12.776 11.6261 13 11.8501 13 12.1261C13 12.4021 12.776 12.6261 12.5 12.6261H7.6648C7.3888 12.6261 7.16481 12.4021 7.16481 12.1261C7.16481 11.8501 7.3888 11.6261 7.6648 11.6261H12.5ZM9.41062 0.435751C9.44395 0.461751 10.5593 1.3284 10.5593 1.3284C10.9646 1.56972 11.2812 2.00105 11.4012 2.5117C11.5206 3.01702 11.4339 3.53834 11.1559 3.979C11.1541 3.98194 11.1522 3.98484 11.1458 3.99348L11.1408 4.00015C11.0956 4.05962 10.8995 4.30765 9.90947 5.54802C9.90027 5.56427 9.88985 5.5795 9.87848 5.59429C9.86178 5.6161 9.84361 5.63614 9.82422 5.6544C9.75669 5.73942 9.68537 5.82876 9.61038 5.92268L9.45843 6.11299C9.14491 6.50563 8.77303 6.97122 8.33184 7.52346L8.10541 7.80686C7.25365 8.87294 6.16281 10.2379 4.7654 11.9861C4.45941 12.3675 4.00075 12.5895 3.5081 12.5955L1.08216 12.6261H1.07549C0.844162 12.6261 0.642834 12.4675 0.588835 12.2415L0.0428485 9.92752C-0.0698154 9.4482 0.0421818 8.95354 0.349508 8.56955L6.62935 0.715078C6.63202 0.712411 6.63402 0.709078 6.63669 0.706411C7.32534 -0.116902 8.57064 -0.238232 9.41062 0.435751ZM5.92919 3.19126L1.13016 9.1942C1.01616 9.33687 0.974159 9.52086 1.01616 9.69753L1.47015 11.6208L3.4961 11.5955C3.68876 11.5935 3.86676 11.5075 3.98475 11.3608C4.59239 10.6006 5.35609 9.64501 6.14127 8.66247L6.41906 8.31484L6.69733 7.96661C7.4337 7.04509 8.16117 6.13456 8.76987 5.37244L5.92919 3.19126ZM7.40667 1.3444L6.55384 2.40994L9.39429 4.59051C9.94102 3.9057 10.3007 3.45467 10.3339 3.41168C10.4433 3.23435 10.4859 2.98369 10.4286 2.74236C10.3699 2.49503 10.2159 2.28504 9.99394 2.15104C9.94661 2.11838 8.8233 1.2464 8.78864 1.21907C8.36598 0.880407 7.74933 0.939072 7.40667 1.3444Z" fill="white"/>
</svg>
