<svg width="14" height="13" viewBox="0 0 14 13" fill="none" xmlns="http://www.w3.org/2000/svg">
<path fill-rule="evenodd" clip-rule="evenodd" d="M10.1966 0C12.3649 0 14 1.76921 14 4.11535V8.58753C14 9.78828 13.5754 10.8731 12.8038 11.6428C12.1116 12.3324 11.2137 12.6977 10.207 12.6977H3.79107C2.78633 12.6977 1.88902 12.333 1.19619 11.6428C0.424558 10.8731 0 9.78828 0 8.58753V4.11535C0 1.76921 1.63507 0 3.80344 0H10.1966ZM10.1966 0.976744H3.80344C2.16577 0.976744 0.976744 2.29665 0.976744 4.11535V8.58753C0.976744 9.52716 1.29972 10.3665 1.88577 10.9506C2.39107 11.4553 3.0507 11.7209 3.79302 11.7209H10.1966C10.1979 11.7196 10.2031 11.7209 10.207 11.7209C10.95 11.7209 11.6089 11.4553 12.1142 10.9506C12.7009 10.3665 13.0233 9.52716 13.0233 8.58753V4.11535C13.0233 2.29665 11.8342 0.976744 10.1966 0.976744ZM11.2228 3.99085C11.3927 4.19987 11.3608 4.50722 11.1518 4.67782L8.25805 7.02982C7.89209 7.32024 7.45451 7.46545 7.01758 7.46545C6.58195 7.46545 6.14763 7.32154 5.78428 7.03373L2.86381 4.67912C2.65349 4.50982 2.62093 4.20182 2.78958 3.99215C2.95953 3.78313 3.26688 3.74992 3.47656 3.91857L6.39442 6.27057C6.76102 6.56099 7.2774 6.56099 7.64661 6.26796L10.5352 3.91987C10.7448 3.74861 11.0522 3.78117 11.2228 3.99085Z" fill="#373A47"/>
</svg>
