<svg width="46" height="46" viewBox="0 0 46 46" fill="none" xmlns="http://www.w3.org/2000/svg">
<rect x="0.45105" y="0.182007" width="44.9022" height="44.9022" rx="4" fill="#FF9C26"/>
<path fill-rule="evenodd" clip-rule="evenodd" d="M16.3411 25.3858C17.2183 24.5087 18.408 24.0159 19.6485 24.0159H27.1322C28.3727 24.0159 29.5624 24.5087 30.4396 25.3858C31.3167 26.263 31.8095 27.4527 31.8095 28.6932V30.5641C31.8095 31.0807 31.3907 31.4996 30.874 31.4996C30.3574 31.4996 29.9386 31.0807 29.9386 30.5641V28.6932C29.9386 27.9489 29.6429 27.2351 29.1166 26.7088C28.5903 26.1825 27.8765 25.8868 27.1322 25.8868H19.6485C18.9042 25.8868 18.1904 26.1825 17.6641 26.7088C17.1378 27.2351 16.8421 27.9489 16.8421 28.6932V30.5641C16.8421 31.0807 16.4233 31.4996 15.9067 31.4996C15.39 31.4996 14.9712 31.0807 14.9712 30.5641V28.6932C14.9712 27.4527 15.464 26.263 16.3411 25.3858Z" fill="white"/>
<path fill-rule="evenodd" clip-rule="evenodd" d="M23.3903 14.6613C21.8404 14.6613 20.5839 15.9178 20.5839 17.4677C20.5839 19.0176 21.8404 20.2741 23.3903 20.2741C24.9402 20.2741 26.1967 19.0176 26.1967 17.4677C26.1967 15.9178 24.9402 14.6613 23.3903 14.6613ZM18.713 17.4677C18.713 14.8845 20.8071 12.7904 23.3903 12.7904C25.9735 12.7904 28.0676 14.8845 28.0676 17.4677C28.0676 20.0509 25.9735 22.145 23.3903 22.145C20.8071 22.145 18.713 20.0509 18.713 17.4677Z" fill="white"/>
</svg>
