<svg width="16" height="16" viewBox="0 0 16 16" fill="none" xmlns="http://www.w3.org/2000/svg">
<path d="M8 15.5C3.85775 15.5 0.5 12.1422 0.5 8C0.5 3.85775 3.85775 0.5 8 0.5C12.1422 0.5 15.5 3.85775 15.5 8C15.5 12.1422 12.1422 15.5 8 15.5ZM8 14C9.5913 14 11.1174 13.3679 12.2426 12.2426C13.3679 11.1174 14 9.5913 14 8C14 6.4087 13.3679 4.88258 12.2426 3.75736C11.1174 2.63214 9.5913 2 8 2C6.4087 2 4.88258 2.63214 3.75736 3.75736C2.63214 4.88258 2 6.4087 2 8C2 9.5913 2.63214 11.1174 3.75736 12.2426C4.88258 13.3679 6.4087 14 8 14ZM8 11.75C7.80109 11.75 7.61032 11.671 7.46967 11.5303C7.32902 11.3897 7.25 11.1989 7.25 11C7.25 10.8011 7.32902 10.6103 7.46967 10.4697C7.61032 10.329 7.80109 10.25 8 10.25C8.19891 10.25 8.38968 10.329 8.53033 10.4697C8.67098 10.6103 8.75 10.8011 8.75 11C8.75 11.1989 8.67098 11.3897 8.53033 11.5303C8.38968 11.671 8.19891 11.75 8 11.75ZM8.957 9.3365C8.80026 9.45903 8.60126 9.51427 8.40378 9.49008C8.20631 9.46589 8.02653 9.36424 7.904 9.2075C7.78147 9.05076 7.72622 8.85176 7.75042 8.65428C7.77461 8.45681 7.87626 8.27703 8.033 8.1545L8.3285 7.9235C8.44545 7.83273 8.54334 7.71977 8.61656 7.5911C8.68977 7.46242 8.73687 7.32057 8.75515 7.17365C8.77343 7.02674 8.76253 6.87767 8.72308 6.73497C8.68363 6.59228 8.61641 6.45878 8.52526 6.34212C8.43411 6.22546 8.32084 6.12794 8.19192 6.05514C8.06301 5.98235 7.921 5.93571 7.77403 5.91791C7.62706 5.90011 7.47802 5.91149 7.33546 5.9514C7.1929 5.99132 7.05961 6.05897 6.94325 6.1505L6.64775 6.3815C6.57048 6.44547 6.48117 6.49329 6.38509 6.52213C6.28902 6.55097 6.18813 6.56025 6.08841 6.54941C5.98869 6.53857 5.89215 6.50783 5.80451 6.45902C5.71688 6.41021 5.63993 6.34432 5.57821 6.26524C5.51649 6.18616 5.47127 6.09551 5.44521 5.99864C5.41915 5.90178 5.41278 5.80067 5.42649 5.7013C5.4402 5.60193 5.47371 5.50632 5.52502 5.42012C5.57634 5.33393 5.64442 5.25891 5.72525 5.1995L6.02 4.9685C6.5686 4.53984 7.26501 4.34667 7.95604 4.43149C8.64706 4.5163 9.27609 4.87215 9.70475 5.42075C10.1334 5.96935 10.3266 6.66576 10.2418 7.35679C10.1569 8.04781 9.8011 8.67684 9.2525 9.1055L8.957 9.3365Z" fill="#FEFEFE" fill-opacity="0.85"/>
</svg>
