<svg width="15" height="18" viewBox="0 0 15 18" fill="none" xmlns="http://www.w3.org/2000/svg">
<path fill-rule="evenodd" clip-rule="evenodd" d="M14.66 14.7409C14.66 17.6623 10.6537 18 7.64104 18L7.42545 17.9998C5.50604 17.9952 0.620361 17.874 0.620361 14.7232C0.620361 11.8615 4.46561 11.479 7.45534 11.4646L7.85662 11.4643C9.77592 11.469 14.66 11.5902 14.66 14.7409ZM7.64104 12.7937C3.86436 12.7937 1.94987 13.4425 1.94987 14.7232C1.94987 16.0155 3.86436 16.6705 7.64104 16.6705C11.4168 16.6705 13.3304 16.0217 13.3304 14.7409C13.3304 13.4487 11.4168 12.7937 7.64104 12.7937ZM7.64104 0.388123C10.2362 0.388123 12.3466 2.49938 12.3466 5.09458C12.3466 7.68977 10.2362 9.80014 7.64104 9.80014H7.61268C5.0228 9.79217 2.92484 7.68002 2.93367 5.09192C2.93367 2.49938 5.04496 0.388123 7.64104 0.388123ZM7.64104 1.65381C5.74339 1.65381 4.19937 3.19693 4.19937 5.09458C4.19319 6.98602 5.72567 8.52825 7.61534 8.53534L7.64104 9.16818V8.53534C9.53781 8.53534 11.0809 6.99134 11.0809 5.09458C11.0809 3.19693 9.53781 1.65381 7.64104 1.65381Z" fill="#373A47"/>
</svg>
