<svg width="18" height="18" viewBox="0 0 18 18" fill="none" xmlns="http://www.w3.org/2000/svg">
<path d="M8.99996 17.3334C4.39746 17.3334 0.666626 13.6026 0.666626 9.00008C0.666626 4.39758 4.39746 0.666748 8.99996 0.666748C13.6025 0.666748 17.3333 4.39758 17.3333 9.00008C17.3333 13.6026 13.6025 17.3334 8.99996 17.3334ZM8.99996 15.6667C10.7681 15.6667 12.4638 14.9644 13.714 13.7141C14.9642 12.4639 15.6666 10.7682 15.6666 9.00008C15.6666 7.23197 14.9642 5.53628 13.714 4.28604C12.4638 3.03579 10.7681 2.33341 8.99996 2.33341C7.23185 2.33341 5.53616 3.03579 4.28591 4.28604C3.03567 5.53628 2.33329 7.23197 2.33329 9.00008C2.33329 10.7682 3.03567 12.4639 4.28591 13.7141C5.53616 14.9644 7.23185 15.6667 8.99996 15.6667ZM8.99996 4.00008C9.88401 4.00008 10.7319 4.35127 11.357 4.97639C11.9821 5.60151 12.3333 6.44936 12.3333 7.33341V9.00008C12.3333 9.88414 11.9821 10.732 11.357 11.3571C10.7319 11.9822 9.88401 12.3334 8.99996 12.3334C8.1159 12.3334 7.26806 11.9822 6.64294 11.3571C6.01782 10.732 5.66663 9.88414 5.66663 9.00008V7.33341C5.66663 6.44936 6.01782 5.60151 6.64294 4.97639C7.26806 4.35127 8.1159 4.00008 8.99996 4.00008ZM8.99996 5.66675C8.55793 5.66675 8.13401 5.84234 7.82145 6.1549C7.50889 6.46746 7.33329 6.89139 7.33329 7.33341V9.00008C7.33329 9.44211 7.50889 9.86603 7.82145 10.1786C8.13401 10.4912 8.55793 10.6667 8.99996 10.6667C9.44199 10.6667 9.86591 10.4912 10.1785 10.1786C10.491 9.86603 10.6666 9.44211 10.6666 9.00008V7.33341C10.6666 6.89139 10.491 6.46746 10.1785 6.1549C9.86591 5.84234 9.44199 5.66675 8.99996 5.66675ZM5.59163 14.7301C5.11161 14.4441 4.66928 14.0992 4.27496 13.7034C4.76994 13.1217 5.40081 12.6712 6.11163 12.3917C6.21408 12.348 6.32426 12.3253 6.43565 12.3249C6.54704 12.3245 6.65738 12.3464 6.76015 12.3894C6.86292 12.4324 6.95603 12.4955 7.03397 12.5751C7.11192 12.6547 7.17313 12.7491 7.21397 12.8527C7.25481 12.9563 7.27446 13.0671 7.27175 13.1785C7.26905 13.2898 7.24405 13.3995 7.19823 13.501C7.1524 13.6026 7.08669 13.6939 7.00497 13.7696C6.92326 13.8453 6.82719 13.9038 6.72246 13.9417C6.27913 14.1167 5.89496 14.3901 5.59079 14.7301H5.59163ZM12.3783 14.7484C12.0556 14.3915 11.653 14.1162 11.2033 13.9451C11.0979 13.9085 11.0009 13.8512 10.9181 13.7764C10.8353 13.7017 10.7684 13.6111 10.7212 13.51C10.6741 13.4089 10.6477 13.2993 10.6437 13.1879C10.6397 13.0764 10.6581 12.9652 10.6978 12.861C10.7375 12.7568 10.7978 12.6616 10.875 12.5811C10.9522 12.5005 11.0448 12.4363 11.1472 12.3923C11.2497 12.3482 11.36 12.3251 11.4715 12.3245C11.5831 12.3238 11.6936 12.3456 11.7966 12.3884C12.5331 12.6685 13.1876 13.129 13.7 13.7276C13.3037 14.1217 12.8597 14.4646 12.3783 14.7484Z" fill="white"/>
</svg>
