<svg width="16" height="16" viewBox="0 0 16 16" fill="none" xmlns="http://www.w3.org/2000/svg">
<path fill-rule="evenodd" clip-rule="evenodd" d="M10.632 11.8475C10.632 11.5273 10.3721 11.2674 10.0519 11.2674C9.73162 11.2674 9.4717 11.5273 9.4717 11.8475V12.5693C9.4717 13.8217 8.4537 14.8397 7.20208 14.8397H3.43097C2.17858 14.8397 1.16058 13.8217 1.16058 12.5693V3.95955C1.16058 2.70793 2.17858 1.68915 3.43097 1.68915H7.20904C8.45679 1.68915 9.4717 2.70406 9.4717 3.95104V4.6805C9.4717 5.00076 9.73162 5.26067 10.0519 5.26067C10.3721 5.26067 10.632 5.00076 10.632 4.6805V3.95104C10.632 2.06432 9.09652 0.528809 7.20904 0.528809H3.43097C1.53885 0.528809 0.000238419 2.06819 0.000238419 3.95955V12.5693C0.000238419 14.4606 1.53885 16 3.43097 16H7.20208C9.09343 16 10.632 14.4606 10.632 12.5693V11.8475ZM15.7162 7.85395L13.4512 5.59825C13.2238 5.37237 12.8571 5.37315 12.6312 5.5998C12.4053 5.82723 12.4053 6.19389 12.6328 6.41977L13.9024 7.68501L5.41291 7.68454V8.84488L13.9024 8.84535L12.6328 10.1089C12.5183 10.2218 12.4618 10.3711 12.4618 10.5196C12.4618 10.6674 12.5183 10.8159 12.6312 10.9289C12.8571 11.1555 13.2238 11.1571 13.4512 10.9304L15.7162 8.67547C15.9351 8.4581 15.9351 8.07132 15.7162 7.85395Z" fill="#FEFEFE" fill-opacity="0.85"/>
</svg>
