<svg width="19" height="20" viewBox="0 0 19 20" fill="none" xmlns="http://www.w3.org/2000/svg">
<path d="M7.06086 16.7376C7.607 16.6349 10.9349 16.6349 11.481 16.7376C11.9479 16.8334 12.4528 17.0574 12.4528 17.5465C12.4256 18.0121 12.1184 18.4249 11.6938 18.687C11.1433 19.0685 10.4973 19.3101 9.82197 19.3972C9.44846 19.4402 9.08147 19.4412 8.721 19.3972C8.04456 19.3101 7.39853 19.0685 6.84913 18.6861C6.42351 18.4249 6.11624 18.0121 6.0891 17.5465C6.0891 17.0574 6.59398 16.8334 7.06086 16.7376ZM9.33543 0.0057373C11.6079 0.0057373 13.9293 0.964335 15.3082 2.55482C16.2029 3.57896 16.6133 4.60212 16.6133 6.19261V6.60637C16.6133 7.82613 16.976 8.54508 17.774 9.37358C18.3788 9.98396 18.5721 10.7675 18.5721 11.6175C18.5721 12.4665 18.2583 13.2725 17.6296 13.9269C16.8066 14.7114 15.6459 15.2122 14.4613 15.2993C12.7447 15.4294 11.0271 15.5389 9.28657 15.5389C7.545 15.5389 5.8284 15.4734 4.1118 15.2993C2.92614 15.2122 1.76546 14.7114 0.943532 13.9269C0.314873 13.2725 0 12.4665 0 11.6175C0 10.7675 0.194353 9.98396 0.79804 9.37358C1.62105 8.54508 1.95981 7.82613 1.95981 6.60637V6.19261C1.95981 4.55908 2.41801 3.49092 3.36154 2.44527C4.76435 0.920318 7.01298 0.0057373 9.23772 0.0057373H9.33543Z" fill="#01071F"/>
</svg>
