<svg width="14" height="14" viewBox="0 0 14 14" fill="none" xmlns="http://www.w3.org/2000/svg">
<path fill-rule="evenodd" clip-rule="evenodd" d="M10.0338 0C12.4061 0 14 1.6646 14 4.1412V9.8588C14 12.3354 12.4061 14 10.0324 14H3.9648C1.5932 14 0 12.3354 0 9.8588V4.1412C0 1.6646 1.5932 0 3.9648 0H10.0338ZM10.0338 1.05H3.9648C2.1945 1.05 1.05 2.2631 1.05 4.1412V9.8588C1.05 11.7369 2.1945 12.95 3.9648 12.95H10.0324C11.8048 12.95 12.95 11.7369 12.95 9.8588V4.1412C12.95 2.2631 11.8048 1.05 10.0338 1.05ZM4.78576 5.17888C5.60847 5.17945 6.30381 5.726 6.52979 6.47424L10.5068 6.47465C10.7966 6.47465 11.0318 6.70985 11.0318 6.99965V8.29675C11.0318 8.58655 10.7966 8.82175 10.5068 8.82175C10.217 8.82175 9.98179 8.58655 9.98179 8.29675V7.52465L9.0517 7.5243L9.05205 8.29675C9.05205 8.58655 8.81685 8.82175 8.52705 8.82175C8.23725 8.82175 8.00205 8.58655 8.00205 8.29675L8.0017 7.5243L6.5301 7.52497C6.30426 8.27408 5.60783 8.82168 4.78576 8.82168C3.78126 8.82168 2.96436 8.00408 2.96436 7.00028C2.96436 5.99578 3.78126 5.17888 4.78576 5.17888ZM4.78716 6.22888C4.36016 6.22888 4.01436 6.57468 4.01436 7.00028C4.01436 7.42588 4.36016 7.77168 4.78576 7.77168C5.21066 7.77168 5.55716 7.42588 5.55716 7.00028C5.55716 6.57538 5.21136 6.22958 4.78716 6.22888Z" fill="#373A47"/>
</svg>
