<svg width="14" height="14" viewBox="0 0 14 14" fill="none" xmlns="http://www.w3.org/2000/svg">
<path fill-rule="evenodd" clip-rule="evenodd" d="M1.6111 2.09059C1.61246 2.09059 1.57832 2.1261 1.53529 2.16844C1.37003 2.32893 1.02789 2.66287 1.02444 3.36149C1.01902 4.33873 1.66163 6.15322 4.75589 9.2468C7.83582 12.3254 9.64757 12.9755 10.6269 12.9755H10.6412C11.3398 12.9721 11.6731 12.6292 11.8343 12.4647C11.8834 12.4141 11.923 12.3773 11.951 12.354C12.6312 11.6698 12.9795 11.1603 12.9761 10.8339C12.9713 10.5006 12.5568 10.1066 11.9838 9.56162C11.8015 9.38816 11.6034 9.19968 11.3945 8.99071C10.8529 8.45053 10.5845 8.54272 9.99449 8.75032C9.17842 9.03646 8.05844 9.42572 6.31839 7.68499C4.57561 5.94357 4.96555 4.82496 5.251 4.00888C5.45724 3.41885 5.55148 3.14978 5.00925 2.60755C4.79687 2.39585 4.60634 2.19508 4.43083 2.01069C3.88928 1.44115 3.49866 1.02935 3.16745 1.02457H3.16198C2.83487 1.02457 2.32679 1.37422 1.60768 2.09332C1.60973 2.09127 1.6111 2.09059 1.6111 2.09059ZM10.6275 13.9998C8.92574 13.9998 6.70697 12.645 4.03201 9.97137C1.34681 7.28685 -0.0101292 5.06125 5.69222e-05 3.35602C0.00626067 2.22922 0.596977 1.65216 0.818923 1.43568C0.830532 1.42134 0.870141 1.38242 0.883799 1.36876C1.86309 0.388782 2.52346 -0.00730544 3.18042 0.000101847C3.94323 0.0104502 4.48615 0.581362 5.17315 1.30456C5.3432 1.48349 5.52758 1.67811 5.73314 1.88299C6.73019 2.88004 6.4461 3.69338 6.218 4.34624C5.96943 5.05852 5.75431 5.67313 7.04228 6.9611C8.33161 8.24907 8.94623 8.03395 9.65577 7.78332C10.3093 7.55523 11.1206 7.26978 12.119 8.26682C12.3212 8.46897 12.5131 8.6513 12.6899 8.81998C13.4166 9.5104 13.9902 10.056 13.9999 10.8209C14.008 11.4731 13.6119 12.1376 12.6339 13.1162L12.201 12.8225L12.567 13.1804C12.3505 13.4023 11.7742 13.9937 10.6467 13.9998H10.6275Z" fill="#373A47"/>
</svg>
