<svg width="8" height="16" viewBox="0 0 8 16" fill="none" xmlns="http://www.w3.org/2000/svg">
<path d="M3.24997 7.925C2.34145 7.73681 1.5349 7.21863 0.986097 6.47056C0.437289 5.72248 0.185158 4.79757 0.278401 3.87446C0.371644 2.95136 0.803644 2.09556 1.49097 1.47234C2.17829 0.849123 3.07217 0.502708 3.99997 0.500002C4.92993 0.499067 5.82707 0.843712 6.51722 1.46703C7.20737 2.09035 7.64129 2.94787 7.73475 3.87313C7.82821 4.79839 7.57454 5.72536 7.02298 6.47411C6.47142 7.22285 5.66133 7.73994 4.74997 7.925V14.75C4.74997 14.9489 4.67095 15.1397 4.5303 15.2803C4.38964 15.421 4.19888 15.5 3.99997 15.5C3.80105 15.5 3.61029 15.421 3.46964 15.2803C3.32898 15.1397 3.24997 14.9489 3.24997 14.75V7.925ZM3.99997 6.5C4.5967 6.5 5.169 6.26295 5.59096 5.84099C6.01291 5.41903 6.24997 4.84674 6.24997 4.25C6.24997 3.65326 6.01291 3.08097 5.59096 2.65901C5.169 2.23705 4.5967 2 3.99997 2C3.40323 2 2.83093 2.23705 2.40898 2.65901C1.98702 3.08097 1.74997 3.65326 1.74997 4.25C1.74997 4.84674 1.98702 5.41903 2.40898 5.84099C2.83093 6.26295 3.40323 6.5 3.99997 6.5Z" fill="#FEFEFE" fill-opacity="0.85"/>
</svg>
