<svg width="16" height="20" viewBox="0 0 16 20" fill="none" xmlns="http://www.w3.org/2000/svg">
<path fill-rule="evenodd" clip-rule="evenodd" d="M7.99975 0.318359C9.06822 0.318359 14.6746 2.24311 15.4168 2.98529C16.0354 3.60393 16.026 4.10374 15.9826 6.49908C15.9656 7.4591 15.9421 8.7671 15.9421 10.5777C15.9421 17.0678 8.52031 19.3896 8.20439 19.4848C8.13743 19.5056 8.06859 19.515 7.99975 19.515C7.9309 19.515 7.86206 19.5056 7.79511 19.4848C7.47919 19.3896 0.0574226 17.0678 0.0574226 10.5777C0.0574226 8.76993 0.0338465 7.46193 0.0168717 6.50191C0.00912522 6.07366 0.00246136 5.70595 0.000268496 5.38729L0 5.02771C0.00808956 3.84641 0.118956 3.44927 0.583642 2.98529C1.32393 2.24311 6.93033 0.318359 7.99975 0.318359ZM7.99975 1.73293C7.20005 1.73293 2.15475 3.50962 1.5729 3.99529C1.40126 4.16787 1.39466 4.46776 1.43144 6.4755C1.44841 7.44306 1.47199 8.75767 1.47199 10.5777C1.47199 15.4825 6.86809 17.66 7.9988 18.0608C9.12857 17.6581 14.5275 15.4684 14.5275 10.5777C14.5275 8.75578 14.5511 7.44024 14.569 6.47267C14.6048 4.46681 14.5982 4.16693 14.4162 3.98586C13.8457 3.50962 8.79945 1.73293 7.99975 1.73293ZM11.5093 7.23984C11.7856 7.51615 11.7856 7.9641 11.5093 8.24041L7.8333 11.9173C7.72768 12.0237 7.59128 12.0927 7.44486 12.116L7.33349 12.1248C7.14582 12.1248 6.9657 12.0503 6.83273 11.9173L5.04849 10.1312C4.77312 9.8549 4.77312 9.40601 5.04943 9.13064C5.3248 8.85433 5.77369 8.85433 6.05 9.13064L7.33349 10.416L10.5097 7.23984C10.786 6.96353 11.233 6.96353 11.5093 7.23984Z" fill="black"/>
</svg>
