<svg width="17" height="16" viewBox="0 0 17 16" fill="none" xmlns="http://www.w3.org/2000/svg">
<path fill-rule="evenodd" clip-rule="evenodd" d="M10.9953 11.7056C10.9953 11.3744 10.7265 11.1056 10.3953 11.1056C10.0641 11.1056 9.79525 11.3744 9.79525 11.7056V12.452C9.79525 13.7472 8.74245 14.8 7.44805 14.8H3.54806C2.25286 14.8 1.20006 13.7472 1.20006 12.452V3.548C1.20006 2.2536 2.25286 1.2 3.54806 1.2H7.45525C8.74565 1.2 9.79525 2.2496 9.79525 3.5392V4.2936C9.79525 4.6248 10.0641 4.8936 10.3953 4.8936C10.7265 4.8936 10.9953 4.6248 10.9953 4.2936V3.5392C10.9953 1.588 9.40725 0 7.45525 0H3.54806C1.59126 0 5.53131e-05 1.592 5.53131e-05 3.548V12.452C5.53131e-05 14.408 1.59126 16 3.54806 16H7.44805C9.40405 16 10.9953 14.408 10.9953 12.452V11.7056ZM16.2532 7.57552L13.9108 5.24272C13.6756 5.00912 13.2964 5.00992 13.0628 5.24432C12.8292 5.47952 12.8292 5.85872 13.0644 6.09232L14.3774 7.4008L5.59773 7.40032V8.60032L14.3774 8.6008L13.0644 9.90752C12.946 10.0243 12.8876 10.1787 12.8876 10.3323C12.8876 10.4851 12.946 10.6387 13.0628 10.7555C13.2964 10.9899 13.6756 10.9915 13.9108 10.7571L16.2532 8.42512C16.4796 8.20032 16.4796 7.80032 16.2532 7.57552Z" fill="#E42D2D"/>
</svg>
