<svg width="32" height="22" viewBox="0 0 32 22" fill="none" xmlns="http://www.w3.org/2000/svg">
<path d="M3.00001 0.166687H13.8333C14.408 0.166687 14.9591 0.39496 15.3654 0.801289C15.7717 1.20762 16 1.75872 16 2.33335C16 2.90799 15.7717 3.45909 15.3654 3.86542C14.9591 4.27175 14.408 4.50002 13.8333 4.50002H3.00001C2.42537 4.50002 1.87427 4.27175 1.46795 3.86542C1.06162 3.45909 0.833344 2.90799 0.833344 2.33335C0.833344 1.75872 1.06162 1.20762 1.46795 0.801289C1.87427 0.39496 2.42537 0.166687 3.00001 0.166687V0.166687ZM18.1667 17.5H29C29.5746 17.5 30.1257 17.7283 30.5321 18.1346C30.9384 18.541 31.1667 19.0921 31.1667 19.6667C31.1667 20.2413 30.9384 20.7924 30.5321 21.1987C30.1257 21.6051 29.5746 21.8334 29 21.8334H18.1667C17.592 21.8334 17.0409 21.6051 16.6346 21.1987C16.2283 20.7924 16 20.2413 16 19.6667C16 19.0921 16.2283 18.541 16.6346 18.1346C17.0409 17.7283 17.592 17.5 18.1667 17.5ZM3.00001 8.83335H29C29.5746 8.83335 30.1257 9.06163 30.5321 9.46796C30.9384 9.87428 31.1667 10.4254 31.1667 11C31.1667 11.5747 30.9384 12.1258 30.5321 12.5321C30.1257 12.9384 29.5746 13.1667 29 13.1667H3.00001C2.42537 13.1667 1.87427 12.9384 1.46795 12.5321C1.06162 12.1258 0.833344 11.5747 0.833344 11C0.833344 10.4254 1.06162 9.87428 1.46795 9.46796C1.87427 9.06163 2.42537 8.83335 3.00001 8.83335Z" fill="#01071F"/>
</svg>
