<svg width="16" height="17" viewBox="0 0 16 17" fill="none" xmlns="http://www.w3.org/2000/svg">
<path fill-rule="evenodd" clip-rule="evenodd" d="M8.00336 0C10.0336 0 11.6889 1.64337 11.711 3.67088L11.8909 3.67171C14.1571 3.67171 16 5.51376 16 7.77838V12.3043C16 14.5681 14.1571 16.4102 11.8909 16.4102H4.10913C1.84369 16.4102 0 14.5681 0 12.3043V7.77838C0 5.51376 1.84369 3.67171 4.10913 3.67171L4.27651 3.67097L4.28172 3.5114C4.33324 2.58056 4.71661 1.72663 5.37444 1.07569C6.07844 0.377436 7.02367 0.0287179 8.00336 0ZM11.8909 4.90248L11.7112 4.90174L11.7113 6.19979C11.7113 6.53949 11.4356 6.81518 11.0959 6.81518C10.7562 6.81518 10.4805 6.53949 10.4805 6.19979L10.4804 4.90174H5.50646L5.50654 6.19979C5.50654 6.53949 5.23085 6.81518 4.89116 6.81518C4.55147 6.81518 4.27577 6.53949 4.27577 6.19979L4.27569 4.90174L4.10913 4.90248C2.52226 4.90248 1.23077 6.19233 1.23077 7.77838V12.3043C1.23077 13.8896 2.52226 15.1794 4.10913 15.1794H11.8909C13.4777 15.1794 14.7692 13.8896 14.7692 12.3043V7.77838C14.7692 6.19233 13.4777 4.90248 11.8909 4.90248ZM8.0009 1.23077C7.33547 1.25374 6.71188 1.48349 6.2409 1.94954C5.77676 2.40964 5.51662 3.01954 5.50681 3.67089L10.4788 3.67097L10.4763 3.56646C10.4008 2.26609 9.31985 1.23077 8.0009 1.23077Z" fill="#00070F" fill-opacity="0.9"/>
</svg>
