<svg width="16" height="14" viewBox="0 0 16 14" fill="none" xmlns="http://www.w3.org/2000/svg">
<path d="M9.10689 0.00271403C5.09408 -0.106154 1.80658 3.07434 1.80658 7.00136H0.395395C0.0406282 7.00136 -0.132813 7.42128 0.119465 7.66234L2.31902 9.83969C2.47669 9.99522 2.72109 9.99522 2.87876 9.83969L5.07832 7.66234C5.32271 7.42128 5.14927 7.00136 4.7945 7.00136H3.38332C3.38332 3.96861 5.89034 1.51909 8.98075 1.55797C11.9135 1.59685 14.3811 4.03082 14.4205 6.92359C14.4599 9.96412 11.9766 12.4447 8.90191 12.4447C7.63264 12.4447 6.45796 12.0171 5.52769 11.2939C5.21234 11.0528 4.77085 11.0761 4.48704 11.3561C4.15592 11.6827 4.17957 12.2348 4.55011 12.5147C5.74843 13.4479 7.25422 14 8.90191 14C12.8832 14 16.1076 10.7573 15.9972 6.79917C15.8948 3.1521 12.8043 0.103806 9.10689 0.00271403ZM8.70482 3.89085C8.38159 3.89085 8.11354 4.15524 8.11354 4.47407V7.33574C8.11354 7.60791 8.26333 7.86452 8.49984 8.0045L10.9596 9.44311C11.2434 9.60641 11.606 9.51309 11.7716 9.24092C11.9371 8.96098 11.8425 8.60327 11.5666 8.43997L9.2961 7.11023V4.46629C9.2961 4.15524 9.02805 3.89085 8.70482 3.89085Z" fill="#FEFEFE" fill-opacity="0.85"/>
</svg>
