<svg width="16" height="17" viewBox="0 0 16 17" fill="none" xmlns="http://www.w3.org/2000/svg">
<path fill-rule="evenodd" clip-rule="evenodd" d="M0 3.93909C0 1.76804 1.588 0.000219345 3.54 0.000219345H12.4512C14.408 0.000219345 16 1.77249 16 3.94888V8.29722C16 10.4683 14.412 12.2352 12.46 12.2352H11.7064C11.3752 12.2352 11.1064 11.9361 11.1064 11.5676C11.1064 11.1991 11.3752 10.9 11.7064 10.9H12.46C13.7496 10.9 14.8 9.73213 14.8 8.29722V3.94888C14.8 2.50775 13.7472 1.33543 12.4512 1.33543H3.54C2.2504 1.33543 1.2 2.50419 1.2 3.93909L1.2 8.28743C1.2 9.72768 2.2528 10.9 3.5472 10.9H4.2936C4.6248 10.9 4.8936 11.1991 4.8936 11.5676C4.8936 11.9361 4.6248 12.2352 4.2936 12.2352H3.5472C1.5912 12.2352 0 10.4638 0 8.28743L0 3.93909ZM5.2424 7.19763L7.5758 4.59045C7.59481 4.56931 7.61508 4.54957 7.63648 4.5314L7.5752 4.59041C7.60669 4.55487 7.64148 4.52376 7.67875 4.4974C7.68809 4.49201 7.69721 4.48593 7.70649 4.48013C7.72081 4.46997 7.73604 4.46138 7.75155 4.45352C7.76256 4.44908 7.77351 4.44396 7.78462 4.4392C7.79982 4.4316 7.81545 4.42572 7.83129 4.42057C7.84376 4.41758 7.85621 4.41401 7.8688 4.41088C7.88406 4.40602 7.8994 4.40289 7.91487 4.40043C7.92189 4.40041 7.92928 4.39939 7.93671 4.39852C7.95782 4.39493 7.97886 4.39369 8 4.39369L8.0632 4.40019L8.08138 4.40094C8.08274 4.40115 8.0841 4.40136 8.08545 4.40157L8 4.39369C8.04441 4.39369 8.08838 4.39916 8.13114 4.40979C8.14379 4.41401 8.15624 4.41758 8.16852 4.42157C8.18455 4.42572 8.20018 4.4316 8.21556 4.43818C8.22649 4.44396 8.23744 4.44908 8.24822 4.45454C8.26397 4.46138 8.27919 4.46997 8.29406 4.47929C8.30279 4.48593 8.31191 4.49201 8.32088 4.49834C8.33614 4.50793 8.35063 4.51921 8.36467 4.53123C8.37296 4.53944 8.38146 4.5471 8.38976 4.55499C8.40198 4.56569 8.4136 4.57777 8.4248 4.59041L10.7568 7.19763C10.8736 7.32759 10.932 7.4985 10.932 7.66852C10.932 7.83942 10.8736 8.01122 10.7552 8.14118C10.52 8.40199 10.1408 8.40021 9.9072 8.1394L8.6 6.67895V15.7806C8.6 16.1492 8.3312 16.4482 8 16.4482C7.6688 16.4482 7.4 16.1492 7.4 15.7806L7.4 6.67895L6.092 8.1394C5.8584 8.40021 5.4792 8.40199 5.244 8.14118C5.0088 7.88037 5.0088 7.45844 5.2424 7.19763Z" fill="#7D8187"/>
</svg>
