<svg width="23" height="24" viewBox="0 0 23 24" fill="none" xmlns="http://www.w3.org/2000/svg">
<path fill-rule="evenodd" clip-rule="evenodd" d="M4.34114 15.3858C5.21831 14.5087 6.408 14.0159 7.6485 14.0159H15.1322C16.3727 14.0159 17.5624 14.5087 18.4396 15.3858C19.3167 16.263 19.8095 17.4527 19.8095 18.6932V20.5641C19.8095 21.0807 19.3907 21.4996 18.874 21.4996C18.3574 21.4996 17.9386 21.0807 17.9386 20.5641V18.6932C17.9386 17.9489 17.6429 17.2351 17.1166 16.7088C16.5903 16.1825 15.8765 15.8868 15.1322 15.8868H7.6485C6.9042 15.8868 6.19039 16.1825 5.66409 16.7088C5.13779 17.2351 4.84212 17.9489 4.84212 18.6932V20.5641C4.84212 21.0807 4.4233 21.4996 3.90665 21.4996C3.39001 21.4996 2.97119 21.0807 2.97119 20.5641V18.6932C2.97119 17.4527 3.46398 16.263 4.34114 15.3858Z" />
<path fill-rule="evenodd" clip-rule="evenodd" d="M11.3903 4.66133C9.8404 4.66133 8.58394 5.91779 8.58394 7.46772C8.58394 9.01764 9.8404 10.2741 11.3903 10.2741C12.9402 10.2741 14.1967 9.01764 14.1967 7.46772C14.1967 5.91779 12.9402 4.66133 11.3903 4.66133ZM6.71301 7.46772C6.71301 4.88451 8.80712 2.79041 11.3903 2.79041C13.9735 2.79041 16.0676 4.88451 16.0676 7.46772C16.0676 10.0509 13.9735 12.145 11.3903 12.145C8.80712 12.145 6.71301 10.0509 6.71301 7.46772Z" />
</svg>
