<svg width="85" height="110" viewBox="0 0 85 110" fill="none" xmlns="http://www.w3.org/2000/svg">
    <g clip-path="url(#clip0_518_818)">
        <path d="M53.7285 64.8254C53.6935 65.3263 53.6744 65.6836 53.6425 66.0377C53.4577 68.0857 54.1173 69.8147 55.9338 70.7973C58.1932 72.019 60.5354 73.1101 62.9095 74.0958C68.9038 76.5872 74.8184 79.1871 79.7993 83.5001C84.2862 87.3856 85.7139 92.3015 84.6814 98.0149C84.2257 100.545 82.6323 102.363 80.5705 103.792C77.234 106.102 73.4226 107.206 69.5189 108.009C61.4181 109.675 53.1995 109.968 44.965 109.994C37.1734 110.019 29.3818 110.041 21.6348 108.982C16.8611 108.328 12.1415 107.445 7.74702 105.368C4.41687 103.795 1.53287 101.661 0.519486 97.9065C-0.729717 93.2745 0.29004 89.0827 3.54371 85.5067C6.17596 82.6133 9.40731 80.4791 12.8171 78.6767C17.3391 76.2874 21.9822 74.1341 26.5711 71.8755C27.4602 71.4385 28.3876 71.0493 29.2034 70.4974C31.6317 68.8545 32.3965 66.0951 31.0612 63.4729C30.4207 62.2096 29.5284 61.0612 28.6648 59.9287C24.35 54.2759 21.2365 48.0776 20.2199 40.9701C19.385 35.1386 19.5125 29.3582 21.9663 23.8713C25.3251 16.3619 31.2365 12.2914 39.3245 11.2674C43.5724 10.7282 47.7566 11.0185 51.7559 12.5976C59.3659 15.6027 63.4226 21.4979 64.9076 29.3232C66.3608 36.9793 64.9746 44.2718 61.7591 51.2708C61.5743 51.6696 61.1059 52.0747 60.6884 52.2023C59.5539 52.5469 58.378 52.7893 57.2053 52.9711C56.8324 53.0286 56.4086 52.7734 56.0071 52.6617C54.7993 52.3267 53.6074 51.8355 52.3774 51.6951C50.9274 51.526 49.4392 51.6313 47.9701 51.6632C44.2512 51.743 41.348 54.6651 41.3703 58.2826C41.3927 61.8619 44.2544 64.7457 47.9127 64.8223C49.812 64.8637 51.7113 64.8286 53.7349 64.8286L53.7285 64.8254Z"
              fill="#26304F"/>
        <path d="M80.411 43.9815C80.411 45.8126 80.4333 47.6437 80.4078 49.4748C80.3473 53.9505 76.1663 56.6557 72.0331 54.9458C71.6475 54.7863 71.0133 54.7831 70.6883 55C66.4021 57.8232 61.6188 59.128 56.5997 59.7755C56.0802 59.8425 55.6054 60.2509 55.1051 60.4837C54.2351 60.8921 53.3874 61.5173 52.476 61.6353C50.991 61.8299 49.4614 61.7183 47.9509 61.6768C46.0802 61.6258 44.6844 60.27 44.5825 58.4772C44.4773 56.6365 45.6405 55.0734 47.5175 54.9043C49.3307 54.7416 51.1695 54.8118 52.9923 54.8915C53.5436 54.9171 54.2351 55.1818 54.5888 55.5806C55.2804 56.359 56.0133 56.3462 56.9215 56.2218C60.94 55.6667 64.7514 54.5374 68.2281 52.3937C68.8017 52.0396 68.9897 51.7238 68.8495 50.9709C68.636 49.813 68.6966 48.5975 68.687 47.4044C68.6711 44.4983 68.7093 41.5921 68.6742 38.6892C68.6456 36.4466 69.4678 34.692 71.3224 33.3873C71.6124 33.1831 71.8004 32.6025 71.7718 32.2133C70.803 19.3414 60.9018 8.23996 48.2632 5.81869C32.4091 2.78175 17.3772 12.6359 13.8049 28.414C13.6392 29.1477 13.5563 29.9037 13.3906 30.6374C13.0624 32.1017 13.0943 33.2788 14.6207 34.2645C15.8381 35.0493 16.2969 36.5486 16.3001 38.0575C16.3097 41.9973 16.3575 45.9402 16.2906 49.8768C16.2364 53.0285 13.7571 55.3892 10.6022 55.4498C7.40593 55.5104 4.72588 53.1976 4.63028 50.0299C4.50918 46.0136 4.55379 41.9909 4.6239 37.9714C4.65896 36.0701 5.62135 34.5963 7.15736 33.4543C7.52703 33.1767 7.86163 32.6057 7.8935 32.1495C8.94513 16.5054 21.0547 3.07842 36.4722 0.504036C55.2867 -2.63818 72.5589 9.19698 76.5073 27.9386C76.6475 28.599 76.7718 29.2657 76.8355 29.9388C76.9948 31.6519 77.0426 33.2692 78.8081 34.4145C80.0669 35.2279 80.3855 36.8453 80.4015 38.3702C80.4206 40.2395 80.4047 42.1121 80.4078 43.9815H80.411Z"
              fill="#FF9D15"/>
    </g>
    <defs>
        <clipPath id="clip0_518_818">
            <rect width="85" height="110" fill="white"/>
        </clipPath>
    </defs>
</svg>

