<svg width="143" height="110" viewBox="0 0 143 110" fill="none" xmlns="http://www.w3.org/2000/svg">
    <g clip-path="url(#clip0_518_863)">
        <path d="M71.2991 103.892L75.2448 107.822C78.16 110.726 82.8848 110.726 85.8001 107.822C88.5646 105.068 88.6651 100.712 86.2022 97.8084L91.3794 102.965C94.2947 105.869 99.0195 105.869 101.935 102.965C104.373 100.537 104.749 96.8821 103.116 94.0282L106.081 96.9822C108.997 99.8862 113.722 99.8862 116.637 96.9822C119.552 94.0783 119.552 89.3719 116.637 86.4679L112.867 82.7128C115.782 84.9158 119.954 84.7155 122.618 82.0619C125.534 79.1579 125.534 74.4515 122.618 71.5476L111.384 60.3573L88.1123 26.1356L77.3558 15.421C76.0741 14.1443 74.4657 13.4183 72.7818 13.1679C67.6549 12.0164 62.3019 12.492 57.4514 14.5198L44.584 19.8771L36.8936 12.2166L7.31348 41.6818L31.3144 65.5894L56.4713 94.0282L67.856 100.162L71.3242 103.892H71.2991Z"
              fill="#493D72"/>
        <path d="M7.3032 41.6841L36.9272 12.1752L29.6234 4.89976L-0.000627034 34.4087L7.3032 41.6841Z" fill="#FF9D15"/>
        <path d="M56.5718 92.9768L56.7226 92.8266C59.6379 89.9226 59.6379 85.2162 56.7226 82.3122C54.2848 79.8839 50.6156 79.5084 47.7505 81.1356L48.8061 80.0842C51.7214 77.1802 51.7214 72.4738 48.8061 69.5699C45.8908 66.6659 41.166 66.6659 38.2507 69.5699L37.7732 70.0455C39.9848 67.1416 39.7838 62.9859 37.1198 60.3323C34.2045 57.4283 29.4797 57.4283 26.5644 60.3323L15.3305 71.5225C12.4152 74.4265 12.4152 79.1329 15.3305 82.0369C17.9945 84.6905 22.1664 84.8908 25.0817 82.6877L21.3119 86.4429C18.3966 89.3468 18.3966 94.0532 21.3119 96.9572C24.2272 99.8612 28.952 99.8612 31.8672 96.9572L34.8328 94.0032C33.1992 96.832 33.5762 100.512 36.014 102.94C38.9293 105.844 43.6541 105.844 46.5694 102.94L51.7465 97.7833C49.2836 100.712 49.3841 105.043 52.1486 107.797C55.0639 110.701 59.7887 110.701 62.704 107.797L66.6497 103.867C69.565 100.963 69.565 96.2563 66.6497 93.3523C63.8852 90.5985 59.5122 90.4984 56.5969 92.9518L56.5718 92.9768Z"
              fill="#26304F"/>
        <path d="M106.056 7.28493L98.3661 14.9454L85.4986 9.58807C80.6482 7.58534 75.2951 7.08466 70.1682 8.21119C68.5095 8.46154 66.876 9.21256 65.5943 10.4893L54.8378 21.2039C51.9225 24.1079 51.9225 28.8143 54.8378 31.7183C57.7531 34.6222 62.4779 34.6222 65.3932 31.7183L73.9883 23.1566L111.636 60.6577L135.637 36.7501L106.006 7.23486L106.056 7.28493Z"
              fill="#26304F"/>
        <path d="M143.01 29.5027L113.386 -0.00616455L106.082 7.26928L135.706 36.7782L143.01 29.5027Z" fill="#FF9D15"/>
        <path d="M26.489 81.9868C26.3382 81.9868 26.1623 81.9367 26.0366 81.8116C25.7853 81.5612 25.7853 81.1607 26.0366 80.9103L36.3407 70.6463C36.592 70.396 36.9941 70.396 37.2454 70.6463C37.4967 70.8967 37.4967 71.2972 37.2454 71.5476L26.9414 81.8116C26.9414 81.8116 26.6649 81.9868 26.489 81.9868Z"
              fill="#101527"/>
        <path d="M36.2654 92.9517C36.1146 92.9517 35.9387 92.9017 35.813 92.7765C35.5617 92.5262 35.5617 92.1256 35.813 91.8753L46.117 81.6113C46.3684 81.3609 46.7705 81.3609 47.0218 81.6113C47.2731 81.8616 47.2731 82.2622 47.0218 82.5125L36.7177 92.7765C36.7177 92.7765 36.4413 92.9517 36.2654 92.9517Z"
              fill="#101527"/>
        <path d="M52.7014 97.5831C52.5506 97.5831 52.3747 97.533 52.249 97.4078C51.9977 97.1575 51.9977 96.7569 52.249 96.5066L55.7172 93.0519C55.9685 92.8016 56.3707 92.8016 56.622 93.0519C56.8733 93.3022 56.8733 93.7028 56.622 93.9531L53.1538 97.4078C53.1538 97.4078 52.8773 97.5831 52.7014 97.5831Z"
              fill="#101527"/>
    </g>
    <defs>
        <clipPath id="clip0_518_863">
            <rect width="143" height="110" fill="white"/>
        </clipPath>
    </defs>
</svg>
