<svg width="90" height="110" viewBox="0 0 90 110" fill="none" xmlns="http://www.w3.org/2000/svg">
    <g clip-path="url(#clip0_518_823)">
        <path d="M90.0003 40.3949C90.0003 16.7173 69.6259 -2.20108 45.466 0.198413C27.1727 2.02282 12.1496 16.4991 9.6325 34.7432C8.97846 39.5025 9.17666 44.1231 10.0487 48.4858L0.317375 65.778C-0.633957 67.5429 0.634486 69.6648 2.63625 69.6648H10.6235V86.6199C10.6235 88.7616 12.3676 90.5067 14.5081 90.5067H32.7816L38.9851 110.02L84.6292 92.7277L76.8402 70.2002C84.9067 62.8034 90.0003 52.2139 90.0003 40.4147V40.3949Z"
              fill="#26304F"/>
        <path d="M16.5295 52.9277C16.5295 52.9277 16.4502 52.9277 16.3908 52.9277C14.8251 52.888 13.2791 51.9957 11.8323 50.2704C11.6539 50.0523 11.6738 49.7548 11.8918 49.5763C12.1098 49.3979 12.4071 49.4177 12.5855 49.6358C13.8539 51.1231 15.1422 51.8965 16.4106 51.9362C17.7583 51.9362 19.225 51.2024 20.7511 49.616C20.9493 49.4177 21.2465 49.4177 21.4646 49.616C21.6628 49.8143 21.6628 50.1316 21.4646 50.3299C19.7997 52.075 18.1151 52.9674 16.5097 52.9674L16.5295 52.9277Z"
              fill="#493D72"/>
        <path d="M18.6898 78.8264H11.6737C11.3962 78.8264 11.1782 78.6083 11.1782 78.3306C11.1782 78.053 11.3962 77.8349 11.6737 77.8349H18.6898C18.9673 77.8349 19.1853 78.053 19.1853 78.3306C19.1853 78.6083 18.9673 78.8264 18.6898 78.8264Z"
              fill="#493D72"/>
        <path d="M70.7614 59.963C81.7134 49.0048 81.7134 31.238 70.7614 20.2798C59.8093 9.32164 42.0525 9.32164 31.1005 20.2798C20.1484 31.238 20.1484 49.0048 31.1005 59.963C42.0525 70.9212 59.8093 70.9212 70.7614 59.963Z"
              fill="#493D72"/>
        <path d="M46.9327 48.2676L50.3219 47.276L49.9255 42.7547L46.3976 42.3779C45.922 41.545 45.3075 40.8113 44.5346 40.2362L44.6535 36.7064L40.2338 35.695L38.787 38.9274C37.8356 39.1257 36.9636 39.5025 36.1708 40.0379L32.8411 38.8282L30.5024 42.715L33.1186 45.0749C32.9997 46.0465 33.1186 47.0182 33.3763 47.9106L31.2159 50.7067L34.1889 54.1176L37.241 52.3527C37.6771 52.551 38.1329 52.7096 38.6086 52.8088C39.0843 52.9277 39.5599 52.9674 40.0356 52.9872L42.0175 55.9023L46.1796 54.1176L45.4463 50.6671C46.0805 49.973 46.576 49.1599 46.9129 48.2279L46.9327 48.2676ZM37.2609 45.2137C37.6374 43.5677 39.2626 42.5564 40.9275 42.9332C42.5725 43.3099 43.5833 44.936 43.2067 46.582C42.8301 48.2279 41.2049 49.2393 39.5599 48.8625C37.9149 48.4857 36.8843 46.8398 37.2609 45.2137Z"
              fill="#FF9D15"/>
        <path d="M67.8819 34.6043L72.5197 33.6326L72.4404 27.5645L67.7828 26.7118C67.2477 25.5616 66.4748 24.5304 65.5036 23.6579L65.9991 18.958L60.192 17.1534L57.9524 21.3179C56.684 21.4765 55.4552 21.9128 54.3453 22.5473L50.0246 20.604L46.5166 25.5616L49.7868 28.9724C49.549 30.2614 49.5688 31.5504 49.8463 32.7799L46.6752 36.2899L50.3219 41.1484L54.5831 39.1058C55.1381 39.4033 55.7326 39.6611 56.347 39.8594C56.9614 40.0577 57.5957 40.1767 58.2299 40.2362L60.5884 44.3213L66.336 42.3581L65.7018 37.6582C66.6135 36.8055 67.3666 35.7545 67.8819 34.5448V34.6043ZM55.257 29.5674C55.9308 27.4058 58.2101 26.216 60.3704 26.8704C62.5307 27.5446 63.7199 29.8252 63.0658 31.9669C62.392 34.1284 60.1127 35.3182 57.9722 34.6638C55.8119 33.9896 54.6029 31.7091 55.2768 29.5475L55.257 29.5674Z"
              fill="#FF9D15"/>
    </g>
    <defs>
        <clipPath id="clip0_518_823">
            <rect width="90" height="110" fill="white"/>
        </clipPath>
    </defs>
</svg>
