<svg width="154" height="130" viewBox="0 0 154 130" fill="none" xmlns="http://www.w3.org/2000/svg">
    <g clip-path="url(#clip0_518_878)">
        <path d="M68.461 128.251C63.0759 128.251 58.6631 123.854 58.6631 118.434V112.039H61.1811V118.434C61.1811 122.455 64.4471 125.728 68.461 125.728C72.475 125.728 75.7409 122.455 75.7409 118.434V37.8211H78.259V118.459C78.259 123.854 73.8711 128.276 68.461 128.276V128.251Z"
              fill="#493D72"/>
        <path d="M68.461 129.5C62.3778 129.5 57.4165 124.529 57.4165 118.434V112.039C57.4165 110.64 58.5384 109.515 59.9346 109.515C61.3307 109.515 62.4526 110.64 62.4526 112.039V118.434C62.4526 121.756 65.1452 124.479 68.486 124.479C71.8267 124.479 74.5193 121.781 74.5193 118.434V110.715C74.5193 109.316 75.6412 108.192 77.0374 108.192C78.4335 108.192 79.5554 109.316 79.5554 110.715V118.434C79.5554 124.529 74.5941 129.5 68.5109 129.5H68.461Z"
              fill="#FF9D15"/>
        <path d="M154 59.2295C151.033 55.5323 146.496 53.1592 141.435 53.1592C132.534 53.1592 125.329 60.4036 125.329 69.2967C125.329 60.4036 118.099 53.1592 109.199 53.1592C100.298 53.1592 93.0931 60.4036 93.0931 69.2967C93.0931 60.4036 85.8631 53.1592 76.9876 53.1592C68.1121 53.1592 60.882 60.4036 60.882 69.2967C60.882 60.4036 53.652 53.1592 44.7515 53.1592C35.8511 53.1592 28.646 60.4036 28.646 69.2967C28.646 60.4036 21.4159 53.1592 12.5404 53.1592C7.42953 53.1592 2.89205 55.5323 -0.0249023 59.2295C6.58187 31.7008 38.5686 0.5 77.0125 0.5C115.456 0.5 147.418 31.7008 154.025 59.2295H154Z"
              fill="#26304F"/>
        <path d="M60.1902 59.1364C59.8037 59.1364 59.5 58.8485 59.5 58.4821C59.5 19.8478 76.8093 0.897118 76.9749 0.713893C77.2234 0.452144 77.6651 0.425969 77.9411 0.661544C78.2172 0.897118 78.2448 1.31592 77.9964 1.60384C77.8307 1.78707 60.8803 20.3975 60.8803 58.4821C60.8803 58.8485 60.5767 59.1364 60.1902 59.1364Z"
              fill="#493D72"/>
        <path d="M27.4959 59.1364C27.4959 59.1364 27.4174 59.1364 27.365 59.1364C26.9985 59.0579 26.7891 58.7177 26.8415 58.3513C36.9988 8.54941 76.9737 0.593671 77.3925 0.515161C77.759 0.43665 78.0994 0.672182 78.1517 1.03856C78.2303 1.40495 77.9947 1.74516 77.6282 1.7975C77.2355 1.87601 38.0983 9.72708 28.1504 58.5869C28.098 58.9009 27.8101 59.1103 27.4959 59.1103V59.1364Z"
              fill="#493D72"/>
        <path d="M93.81 59.1364C93.4235 59.1364 93.1198 58.8485 93.1198 58.4821C93.1198 20.3713 76.1695 1.78707 76.0038 1.60384C75.7554 1.34209 75.783 0.923293 76.059 0.661544C76.3351 0.425969 76.7768 0.452144 77.0252 0.713893C77.1909 0.897118 94.5002 19.8478 94.5002 58.4821C94.5002 58.8485 94.1965 59.1364 93.81 59.1364Z"
              fill="#493D72"/>
        <path d="M126.523 59.1364C126.209 59.1364 125.947 58.9271 125.868 58.613C115.891 9.72708 76.7652 1.87601 76.3724 1.7975C76.0057 1.71899 75.77 1.37878 75.8486 1.03856C75.9272 0.672182 76.2676 0.43665 76.6081 0.515161C77.0009 0.593671 117.017 8.57558 127.152 58.3513C127.23 58.7177 126.995 59.0579 126.628 59.1364C126.576 59.1364 126.549 59.1364 126.497 59.1364H126.523Z"
              fill="#493D72"/>
    </g>
    <defs>
        <clipPath id="clip0_518_878">
            <rect width="154" height="129" fill="white" transform="translate(0 0.5)"/>
        </clipPath>
    </defs>
</svg>
