<svg width="320" height="339" class="logo" viewBox="0 0 320 339" fill="none" xmlns="http://www.w3.org/2000/svg">
    <path d="M37.1252 247.575H14.0496C12.0603 247.575 10.071 245.478 10.071 242.963L10.4689 176.3C10.4689 172.946 13.6517 171.269 15.2432 171.269L37.5231 171.688C39.5123 171.688 41.5016 173.784 41.5016 176.3V242.543C41.8995 245.059 39.9102 247.575 37.1252 247.575Z"
          fill="#505055"/>
    <path d="M208.998 247.575H185.923C183.934 247.575 181.944 245.478 181.944 242.963L182.342 176.3C182.342 172.946 185.525 171.269 187.116 171.269L209.396 171.688C211.386 171.688 213.375 173.784 213.375 176.3V242.543C213.773 245.059 211.783 247.575 208.998 247.575Z"
          fill="#505055"/>
    <path d="M219.74 210.679C220.138 190.136 222.128 170.849 221.73 150.306C221.73 148.629 221.73 146.532 220.934 144.855C219.74 142.759 205.815 134.374 197.063 130.6C192.288 115.507 179.159 84.062 176.374 80.2887C173.987 76.5153 170.009 73.5805 166.428 73.5805C134.202 73.1612 101.578 73.5805 68.5556 73.5805C64.9749 73.5805 61.3942 73.5805 58.2114 76.096C55.0285 78.1924 53.0393 82.385 51.4478 86.1584C44.6843 100.413 38.3186 115.087 31.1572 130.6C24.7915 133.954 18.028 137.728 11.6624 141.082C9.67309 141.92 8.08166 143.178 6.49024 144.855C3.70526 148.209 3.30743 153.24 2.90957 157.852C1.71601 176.3 2.11385 190.974 3.70527 210.26C2.90956 220.742 25.9851 219.484 37.5229 219.484C96.0076 219.484 150.514 219.903 208.998 219.903C211.783 219.903 214.568 219.903 216.955 218.226C218.547 216.13 219.74 213.195 219.74 210.679Z"
          fill="white"/>
    <path d="M208.601 221.161H208.203L36.7275 220.742C35.5339 220.742 34.3403 220.742 33.1467 220.742C22.8025 220.742 8.47975 220.742 3.30764 215.291C1.71622 213.614 1.31837 211.937 1.31837 209.422C-0.273052 188.459 -0.27304 174.204 0.52267 157.014C0.920524 151.983 1.31838 146.532 4.50122 142.759C6.09264 140.663 8.47976 139.405 10.469 138.566L29.1682 128.504C35.9317 112.991 42.6953 98.7363 49.0609 84.4814C50.6524 80.708 53.0395 76.0962 56.6202 73.5806C60.2009 71.065 64.5773 71.065 68.158 71.065C99.9864 71.065 133.406 70.6457 166.03 71.065C170.407 71.065 174.783 73.9999 177.966 78.6117C180.751 83.2236 193.88 113.83 198.654 128.504C206.214 131.858 220.934 140.243 222.526 143.178C223.719 145.275 223.719 147.79 223.719 149.467C224.117 162.045 223.321 174.204 222.923 186.362C222.526 193.909 222.128 201.875 222.128 210.26C222.128 213.195 220.934 217.388 217.353 219.065C214.171 221.161 210.988 221.161 208.601 221.161ZM36.3296 216.549H36.7275L208.203 216.969C210.59 216.969 213.375 216.968 215.364 215.711C216.956 214.872 217.751 212.357 218.149 210.26C218.149 202.294 218.547 193.909 218.945 186.362C219.343 174.623 220.138 162.464 219.741 149.886C219.741 148.629 219.741 146.532 218.945 145.275C217.751 143.597 205.02 136.051 195.869 131.858C195.471 131.439 195.074 131.02 194.676 130.6C189.901 115.507 176.772 84.4814 174.385 80.7081C171.998 76.9347 168.815 74.8383 166.03 74.8383C133.406 74.4191 99.9864 74.8383 68.158 74.8383C64.9751 74.8383 61.3944 74.8383 59.0073 76.9347C56.2223 79.031 54.6309 82.8044 53.0395 86.1585C46.6738 100.413 39.9103 115.088 32.7489 130.6C32.7489 131.02 32.351 131.439 31.9532 131.439L12.4583 141.92C10.8669 142.759 8.87763 143.597 7.68407 145.275C5.29694 148.209 4.8991 152.821 4.8991 157.014C4.10339 174.204 4.10337 188.459 5.69479 209.002C5.69479 209.002 5.69479 209.002 5.69479 209.422C5.69479 210.68 6.09264 211.518 6.49049 211.937C10.469 216.549 24.7918 216.13 33.5446 216.13C33.9425 216.549 35.136 216.549 36.3296 216.549Z"
          fill="#505055"/>
    <path d="M50.6531 131.439C56.6209 118.022 64.1801 94.1244 69.3522 91.6088C72.9329 89.9318 118.686 90.7703 143.751 90.3511C148.923 90.3511 154.891 90.7703 158.472 94.9629C160.461 97.4785 174.784 130.181 174.784 130.181L50.6531 131.439Z"
          fill="#26304F"/>
    <path d="M50.6525 133.535C49.8568 133.535 49.4589 133.116 49.0611 132.697C48.6632 132.277 48.6632 131.439 49.0611 130.6C50.6525 126.827 52.2439 122.634 54.2332 118.022C60.5989 102.09 64.5774 92.0281 68.9538 89.9317C71.7388 88.674 86.8573 88.2547 122.266 88.6739C130.223 88.6739 137.783 88.6739 144.148 88.6739C149.718 88.6739 156.482 89.0932 160.46 94.1244C162.45 96.64 174.783 124.311 177.17 129.762C177.568 130.6 177.568 131.02 177.17 131.858C176.772 132.277 175.977 132.697 175.579 132.697L50.6525 133.535ZM104.363 92.4474C88.0509 92.4474 72.1367 92.4473 70.1474 93.2859C66.9646 94.9629 61.3946 108.799 57.4161 119.28C56.2225 122.634 54.6311 125.988 53.4375 129.342L171.6 128.504C166.03 115.926 158.073 98.317 156.88 96.64C154.095 92.8666 148.525 92.4473 143.751 92.8666C137.385 92.8666 129.826 92.8666 121.869 92.8666C116.299 92.4473 110.331 92.4474 104.363 92.4474Z"
          fill="#505055"/>
    <path d="M95.6102 186.363C86.0617 186.363 76.5133 186.363 67.3626 186.363C66.9647 186.363 66.5669 185.943 66.5669 185.524C66.5669 185.105 66.9647 184.686 67.3626 184.686C97.2017 185.105 127.041 184.685 156.88 184.266C157.278 184.266 157.676 184.685 157.676 185.105C157.676 185.524 157.278 185.943 156.88 185.943C136.589 186.363 116.299 186.363 95.6102 186.363Z"
          fill="#505055"/>
    <path d="M95.6102 168.753C86.0617 168.753 76.5133 168.753 67.3626 168.753C66.9647 168.753 66.5669 168.334 66.5669 167.915C66.5669 167.495 66.9647 167.076 67.3626 167.076C97.2017 167.495 127.041 167.076 156.88 166.657C157.278 166.657 157.676 167.076 157.676 167.495C157.676 167.915 157.278 168.334 156.88 168.334C136.589 168.753 116.299 168.753 95.6102 168.753Z"
          fill="#505055"/>
    <path d="M193.88 123.054C193.084 123.054 192.288 122.215 191.891 121.377C191.493 120.119 192.288 119.28 193.482 118.861C201.041 117.184 208.998 116.765 216.955 117.184C218.149 117.184 218.945 118.023 218.945 119.28C218.945 120.538 217.751 121.377 216.955 121.377C209.396 120.538 201.837 121.377 193.88 123.054C194.278 123.054 194.278 123.054 193.88 123.054Z"
          fill="#505055"/>
    <path d="M33.1464 123.473C32.7486 123.473 32.7486 123.473 32.3507 123.473C27.1786 121.377 14.0494 120.538 8.47944 120.957C7.28587 120.957 6.49014 120.119 6.09229 119.28C6.09229 118.023 6.88803 117.184 7.68374 116.765C13.6516 115.926 27.5765 116.765 33.5443 119.28C34.7379 119.7 35.1357 120.957 34.7379 122.215C34.34 123.054 33.9421 123.473 33.1464 123.473Z"
          fill="#505055"/>
    <path d="M187.514 338.555C186.719 338.555 185.923 338.136 185.525 336.878C181.149 322.204 171.6 308.787 158.869 299.563C142.955 289.92 106.75 263.507 95.212 246.736C94.4163 245.898 94.8142 244.64 95.6099 243.801C96.4056 242.963 97.5992 243.382 98.395 244.221C109.535 259.733 144.546 285.728 161.256 295.79C173.192 304.595 182.342 316.753 187.912 330.17C194.676 313.818 202.633 308.787 215.762 299.563C220.138 296.629 224.913 293.274 230.881 288.663C232.472 287.405 234.461 286.147 236.45 284.47C264.3 264.345 310.849 230.804 316.419 61.8413C279.021 52.1983 227.3 34.5892 189.106 4.82152C175.977 15.7224 130.621 43.3937 119.481 50.1019C118.685 50.5212 117.094 50.5212 116.696 49.2634C116.298 48.4249 116.298 46.7479 117.492 46.3286C128.632 39.6204 176.772 10.2719 187.514 0.628894C188.31 -0.209631 189.106 -0.209631 189.902 0.628894C228.493 31.2351 281.01 48.8441 318.409 58.4872C319.204 58.9065 320 59.745 320 60.5835C317.613 136.47 306.871 192.232 287.774 231.643C271.462 264.765 252.365 278.6 238.44 288.663C236.45 289.92 234.859 291.597 232.87 292.855C226.902 297.467 222.128 300.821 217.751 303.756C203.031 313.818 196.267 318.43 189.504 337.716C189.106 337.716 188.31 338.555 187.514 338.555Z"
          fill="#505055"/>
    <path d="M187.514 296.628C187.116 296.628 187.116 296.628 187.514 296.628C187.116 296.628 187.116 296.628 187.116 296.209C185.127 293.274 173.987 285.308 162.449 276.923C148.922 266.861 133.406 255.96 129.029 250.51C128.631 250.09 128.631 249.671 129.029 249.671C129.427 249.252 129.825 249.252 129.825 249.671C134.202 255.121 149.32 266.022 163.245 275.665C174.783 284.051 184.729 291.178 187.912 294.532C195.073 286.566 200.643 282.793 212.579 275.246C215.762 273.15 218.945 271.053 222.923 268.538C276.633 232.9 289.365 175.881 295.333 76.0961C248.784 64.3568 214.17 48.8441 189.901 29.558C184.331 35.0084 171.6 42.1359 163.643 46.3285C161.256 47.5863 159.664 48.4248 158.471 49.2633C158.073 49.2633 157.675 49.2633 157.675 48.844C157.675 48.4248 157.675 48.0055 158.073 48.0055C159.266 47.167 160.858 46.3285 163.245 45.0707C171.202 40.8781 184.331 33.3313 189.503 28.3002C189.901 27.8809 190.299 27.8809 190.299 28.3002C214.568 48.0055 249.181 63.0989 296.128 74.8383C296.526 74.8383 296.526 75.2576 296.526 75.6769C294.139 116.765 290.161 159.949 278.623 194.748C267.483 228.289 249.977 252.187 223.321 269.796C219.342 272.311 215.762 274.827 212.977 276.504C200.643 284.47 195.073 288.243 187.912 296.209C187.514 296.628 187.514 296.628 187.514 296.628Z"
          fill="#505055"/>
    <path d="M18.0286 167.076C16.835 167.076 16.0393 166.238 16.0393 164.98C16.0393 163.722 16.835 162.883 18.0286 162.883C26.7814 162.464 35.9321 162.045 44.6849 162.045C45.8785 162.045 46.6742 162.883 46.6742 164.141C46.6742 165.399 45.8785 166.238 44.6849 166.238C35.9321 166.657 27.1792 166.657 18.0286 167.076Z"
          fill="#505055"/>
    <path d="M180.751 166.657C179.557 166.657 178.762 165.818 178.762 164.561C178.762 163.303 179.557 162.464 180.751 162.464C189.504 162.045 198.655 161.626 207.407 161.626C208.601 161.626 209.397 162.464 209.397 163.722C209.397 164.98 208.601 165.818 207.407 165.818C198.655 166.238 189.504 166.238 180.751 166.657Z"
          fill="#505055"/>
</svg>
