<svg width="540" height="538" viewBox="0 0 540 538" fill="none" xmlns="http://www.w3.org/2000/svg">
    <g clip-path="url(#clip0_518_900)">
        <path d="M472.607 460.277C461.631 471.802 451.245 479.234 443.037 485.105C346.577 554.129 232.439 534.01 208.18 529.097C172.36 521.841 103.118 507.815 53.0578 449.106C-22.677 360.282 -10.884 220.342 47.8635 127.968C58.6084 111.071 115.37 17.2876 230.737 2.24859C300.557 -6.85321 381.943 11.5041 440.881 60.7484C564.597 164.117 555.791 372.94 472.607 460.277Z"
              fill="url(#paint0_linear_518_900)"/>
        <path d="M378.917 409.174C459.747 328.563 459.747 197.867 378.917 117.256C298.087 36.6455 167.035 36.6455 86.2053 117.256C5.37529 197.867 5.3753 328.563 86.2053 409.174C167.035 489.785 298.087 489.785 378.917 409.174Z"
              fill="#26304F"/>
        <path d="M232.562 439.383C330.122 439.383 409.209 360.51 409.209 263.215C409.209 165.92 330.122 87.0465 232.562 87.0465C135.003 87.0465 55.9155 165.92 55.9155 263.215C55.9155 360.51 135.003 439.383 232.562 439.383Z"
              fill="url(#paint1_linear_518_900)"/>
        <path d="M232.563 448.208C130.28 448.208 47.0684 365.221 47.0684 263.215C47.0684 161.208 130.282 78.2214 232.563 78.2214C334.843 78.2214 418.057 161.208 418.057 263.215C418.057 365.221 334.843 448.208 232.563 448.208ZM232.563 87.0465C135.159 87.0465 55.9155 166.075 55.9155 263.215C55.9155 360.354 135.159 439.383 232.563 439.383C329.966 439.383 409.209 360.354 409.209 263.215C409.209 166.075 329.966 87.0465 232.563 87.0465Z"
              fill="white"/>
        <path d="M308.711 339.159C350.767 297.216 350.767 229.214 308.711 187.272C266.654 145.33 198.467 145.33 156.411 187.272C114.355 229.214 114.355 297.216 156.411 339.159C198.467 381.101 266.654 381.101 308.711 339.159Z"
              fill="url(#paint2_linear_518_900)"/>
        <path d="M232.562 379.44C168.303 379.44 116.021 327.302 116.021 263.215C116.021 199.127 168.301 146.991 232.562 146.991C296.824 146.991 349.103 199.129 349.103 263.215C349.103 327.3 296.824 379.44 232.562 379.44ZM232.562 164.638C178.059 164.638 133.717 208.859 133.717 263.215C133.717 317.57 178.059 361.793 232.562 361.793C287.065 361.793 331.407 317.572 331.407 263.215C331.407 208.857 287.065 164.638 232.562 164.638Z"
              fill="white"/>
        <path d="M262.064 292.638C278.358 276.389 278.358 250.042 262.064 233.792C245.77 217.542 219.352 217.542 203.058 233.792C186.764 250.042 186.764 276.388 203.058 292.638C219.352 308.888 245.77 308.888 262.064 292.638Z"
              fill="#FF9D15"/>
        <path d="M232.562 313.65C204.678 313.65 181.992 291.025 181.992 263.216C181.992 235.408 204.678 212.783 232.562 212.783C260.447 212.783 283.133 235.408 283.133 263.216C283.133 291.025 260.447 313.65 232.562 313.65ZM232.562 230.429C214.435 230.429 199.686 245.138 199.686 263.216C199.686 281.295 214.435 296.004 232.562 296.004C250.69 296.004 265.439 281.295 265.439 263.216C265.439 245.138 250.69 230.429 232.562 230.429Z"
              fill="white"/>
        <path d="M263.648 232.75L268.042 237.133L434.456 71.1702L430.061 66.7871L263.648 232.75Z"
              fill="url(#paint3_linear_518_900)"/>
        <path d="M266.755 222.177C269.277 219.662 281.162 231.517 278.64 234.03L234.556 268.593C232.928 269.87 230.817 267.765 232.098 266.141L266.755 222.177Z"
              fill="url(#paint4_linear_518_900)"/>
        <path d="M434.356 71.2677L456.744 73.487L426.01 104.138C415.939 114.181 401.884 119.188 387.714 117.784L434.356 71.2677Z"
              fill="#91B3FA"/>
        <path d="M429.961 66.8849L427.736 44.5579L397.002 75.2086C386.932 85.2519 381.911 99.2687 383.319 113.401L429.961 66.8849Z"
              fill="#91B3FA"/>
        <g opacity="0.3">
            <path d="M122.724 35.9788C122.097 36.6032 121.084 36.6013 120.458 35.9788C119.242 34.7663 117.957 33.5885 116.637 32.4779C115.969 31.9168 115.876 30.9254 116.425 30.251C116.431 30.2433 116.439 30.2356 116.445 30.226C117.015 29.5516 118.024 29.4651 118.701 30.0338C120.092 31.2021 121.444 32.4414 122.724 33.7192C123.309 34.3033 123.346 35.2255 122.835 35.8519C122.801 35.8942 122.762 35.9365 122.722 35.9768L122.724 35.9788ZM109.836 27.5149C108.376 26.5945 106.863 25.7279 105.337 24.9401C104.553 24.5347 104.247 23.5702 104.654 22.7862C105.066 22.0023 106.027 21.6987 106.813 22.1041C108.418 22.9342 110.012 23.8468 111.547 24.8133C112.295 25.2841 112.518 26.2717 112.046 27.0172C112.011 27.071 111.975 27.1229 111.934 27.1709C111.43 27.7915 110.53 27.951 109.836 27.5149ZM97.6097 21.5988C95.9855 21.0281 94.317 20.5189 92.6505 20.0905C91.795 19.8695 91.2787 18.9972 91.5003 18.144C91.7218 17.2909 92.5946 16.7779 93.452 16.997C95.2091 17.4504 96.9662 17.9846 98.6751 18.586C99.5094 18.88 99.9467 19.7926 99.6519 20.6227C99.5883 20.7995 99.4978 20.9589 99.386 21.0973C98.9718 21.6065 98.2647 21.8274 97.6097 21.5969V21.5988ZM84.3639 18.5591C82.6512 18.3631 80.9095 18.2401 79.189 18.1921C78.3046 18.1671 77.6072 17.4331 77.6322 16.5512C77.6573 15.6692 78.3952 14.9756 79.2776 14.9987C81.0906 15.0486 82.9228 15.1793 84.7262 15.383C85.6047 15.4829 86.2366 16.2745 86.1365 17.1507C86.0999 17.4639 85.9766 17.7463 85.7897 17.975C85.4564 18.3842 84.9285 18.6206 84.3639 18.5572V18.5591ZM70.7676 18.5379C69.0586 18.7262 67.3323 18.9914 65.6388 19.3238C64.7699 19.4948 63.928 18.9318 63.7584 18.0653C63.5869 17.1987 64.1514 16.359 65.0204 16.19C66.8025 15.8403 68.6174 15.5616 70.4169 15.3618C71.2955 15.2638 72.0873 15.896 72.1856 16.7741C72.2357 17.216 72.0989 17.6349 71.8388 17.9557C71.5825 18.2709 71.2068 18.4899 70.7714 18.5379H70.7676ZM57.5064 21.5181C55.8784 22.0791 54.2562 22.719 52.6802 23.4164C51.8729 23.7738 50.925 23.4107 50.5666 22.6056C50.2083 21.7986 50.5705 20.8552 51.3797 20.4978C53.0366 19.7638 54.7455 19.0913 56.4583 18.4995C57.2945 18.2113 58.2058 18.6532 58.4948 19.4871C58.6836 20.029 58.5622 20.6016 58.2251 21.0166C58.044 21.2395 57.7993 21.4182 57.5064 21.5181ZM16.6556 64.6215C15.8002 64.3986 15.2858 63.5263 15.5093 62.6732C15.9659 60.9247 16.5053 59.1723 17.1142 57.4642C17.4109 56.6322 18.326 56.1979 19.1583 56.4938C19.9907 56.7878 20.428 57.7024 20.1313 58.5325C19.5552 60.1542 19.0427 61.8181 18.6093 63.4782C18.5495 63.7069 18.4436 63.9086 18.3048 64.0816C17.9214 64.5523 17.2837 64.7848 16.6556 64.6215ZM45.2433 27.3515C43.7829 28.2604 42.3437 29.2422 40.9661 30.2721C40.259 30.8005 39.2533 30.6583 38.7235 29.9531C38.1917 29.248 38.3401 28.2488 39.0433 27.7166C40.4941 26.6329 42.0084 25.5973 43.5478 24.6404C44.2992 24.1735 45.2857 24.4021 45.7538 25.1515C46.1257 25.7452 46.0583 26.4869 45.6383 27.0018C45.5284 27.1363 45.3955 27.2535 45.2414 27.3515H45.2433ZM21.3355 51.5077C20.5513 51.1004 20.2469 50.1358 20.6554 49.3538C21.4934 47.7513 22.4105 46.1642 23.3835 44.6367C23.8536 43.8893 24.8477 43.6722 25.5934 44.1429C26.3409 44.6156 26.5605 45.6032 26.0885 46.3468C25.1637 47.7994 24.2909 49.3077 23.4952 50.8295C23.4451 50.9275 23.3854 51.0159 23.318 51.0985C22.8479 51.6768 22.0214 51.8651 21.3355 51.5077ZM34.5985 35.7693C33.379 36.9798 32.196 38.2595 31.0824 39.5718C30.5121 40.2462 29.5006 40.3289 28.8263 39.7601C28.1597 39.1971 28.0691 38.2095 28.6163 37.5351C28.624 37.5255 28.6298 37.5178 28.6375 37.5082C29.8089 36.1267 31.0554 34.7798 32.3386 33.5039C32.9667 32.8814 33.9801 32.8833 34.6043 33.5097C35.1881 34.0938 35.2228 35.0142 34.7141 35.6406C34.6775 35.6848 34.639 35.727 34.5985 35.7674V35.7693Z"
                  fill="#1A0F91"/>
            <path d="M16.4669 75.1432C16.6653 74.8992 16.7944 74.5937 16.8194 74.2555C16.8792 73.4351 16.9601 72.6012 17.0526 71.7769C17.1527 70.9007 16.5227 70.1091 15.6442 70.0073C14.7656 69.9054 13.9699 70.5356 13.8697 71.4118C13.7695 72.2784 13.6867 73.1546 13.6231 74.0192C13.5576 74.8992 14.2204 75.6639 15.1028 75.7293C15.6461 75.7696 16.147 75.5333 16.4669 75.1413V75.1432Z"
                  fill="#1A0F91"/>
        </g>
        <g opacity="0.3">
            <path d="M32.1748 121.248C32.6623 120.648 32.6546 119.77 32.1228 119.177C31.5718 118.564 31.0246 117.928 30.4967 117.29C29.9341 116.61 28.9246 116.512 28.2425 117.073C27.5566 117.636 27.4622 118.641 28.0248 119.321C28.5816 119.993 29.1577 120.662 29.7376 121.307C30.3272 121.965 31.3406 122.02 31.9995 121.43C32.065 121.373 32.1228 121.311 32.1748 121.246V121.248Z"
                  fill="#1A0F91"/>
            <path d="M125.024 121.39C124.434 122.047 123.421 122.103 122.762 121.515C122.103 120.927 122.047 119.918 122.637 119.259C123.76 118.008 124.847 116.69 125.881 115.326C126.409 114.625 127.419 114.484 128.126 115.017C128.831 115.549 128.97 116.55 128.436 117.253C127.987 117.843 127.532 118.425 127.068 118.996C126.405 119.811 125.717 120.616 125.024 121.39ZM131.037 110.582C130.266 110.15 129.993 109.176 130.426 108.407C131.259 106.931 132.037 105.404 132.738 103.867C133.102 103.064 134.056 102.71 134.859 103.077C135.663 103.442 136.019 104.391 135.651 105.192C134.911 106.81 134.093 108.419 133.216 109.971C133.17 110.052 133.12 110.127 133.062 110.196C132.58 110.79 131.725 110.968 131.035 110.58L131.037 110.582ZM118.77 127.462C117.412 128.611 115.984 129.718 114.529 130.751C113.809 131.262 112.809 131.095 112.296 130.377C111.784 129.658 111.952 128.663 112.672 128.15C114.055 127.168 115.41 126.117 116.699 125.025C117.373 124.455 118.385 124.537 118.957 125.21C119.464 125.806 119.456 126.662 118.98 127.247C118.918 127.323 118.849 127.395 118.77 127.46V127.462ZM136.73 98.1158C135.882 97.8641 135.401 96.9726 135.655 96.1291C136.141 94.5093 136.563 92.8492 136.909 91.1948C137.09 90.3302 137.938 89.7768 138.805 89.9574C139.67 90.1381 140.225 90.9835 140.046 91.8462C139.682 93.587 139.237 95.3355 138.724 97.0417C138.663 97.2473 138.562 97.4318 138.435 97.5894C138.038 98.0774 137.372 98.3041 136.732 98.1139L136.73 98.1158ZM107.094 135.297C105.517 136.12 103.881 136.886 102.234 137.576C101.419 137.918 100.48 137.536 100.137 136.723C99.7944 135.91 100.178 134.973 100.995 134.633C102.559 133.977 104.114 133.249 105.613 132.467C106.397 132.058 107.364 132.361 107.775 133.143C108.079 133.726 107.988 134.41 107.599 134.89C107.466 135.053 107.297 135.196 107.096 135.299L107.094 135.297ZM93.9778 140.389C92.2535 140.848 90.4887 141.242 88.7354 141.555C87.8646 141.711 87.0322 141.135 86.8762 140.266C86.7201 139.396 87.2981 138.568 88.169 138.412C89.8355 138.112 91.5117 137.74 93.1513 137.303C94.0067 137.075 94.8834 137.582 95.1126 138.433C95.2494 138.946 95.1203 139.469 94.8082 139.853C94.6021 140.107 94.3188 140.299 93.9778 140.389ZM80.0597 142.51C78.2756 142.585 76.4665 142.585 74.6863 142.51C73.8019 142.474 73.116 141.728 73.1526 140.848C73.1893 139.966 73.9368 139.282 74.8192 139.319C76.5108 139.39 78.2274 139.39 79.9248 139.319C80.8092 139.282 81.5548 139.966 81.5914 140.848C81.6087 141.254 81.4739 141.629 81.235 141.921C80.9556 142.264 80.5356 142.491 80.0578 142.51H80.0597ZM66.0086 141.554C64.2515 141.237 62.4867 140.843 60.7643 140.38C59.9108 140.151 59.4041 139.273 59.6353 138.422C59.8645 137.57 60.745 137.067 61.5985 137.296C63.2342 137.736 64.9085 138.11 66.5789 138.41C67.4498 138.568 68.0277 139.398 67.8698 140.266C67.8197 140.541 67.7041 140.785 67.5384 140.987C67.1819 141.425 66.604 141.661 66.0086 141.554ZM52.5066 137.538C50.8651 136.844 49.2333 136.072 47.6534 135.242C46.8712 134.83 46.5706 133.864 46.9829 133.084C47.3952 132.306 48.3643 132.004 49.1466 132.415C50.6474 133.205 52.1984 133.939 53.7551 134.598C54.5701 134.942 54.9496 135.88 54.6048 136.692C54.545 136.835 54.466 136.961 54.3736 137.077C53.9362 137.615 53.1771 137.824 52.5047 137.54L52.5066 137.538ZM40.23 130.671C39.1607 129.91 38.103 129.107 37.0857 128.282C36.7177 127.984 36.3536 127.683 35.9933 127.379C35.319 126.809 35.2149 125.798 35.8064 125.129C36.3786 124.457 37.3882 124.372 38.0645 124.943C38.4074 125.233 38.7542 125.519 39.1029 125.802C40.0701 126.584 41.0758 127.348 42.0912 128.071C42.8117 128.584 42.9774 129.581 42.463 130.298C42.4437 130.325 42.4245 130.352 42.4033 130.377C41.8735 131.028 40.9217 131.162 40.23 130.669V130.671Z"
                  fill="#1A0F91"/>
            <path d="M140.89 84.0779C141.091 83.8319 141.22 83.5226 141.243 83.1825C141.302 82.3198 141.345 81.4397 141.368 80.5655C141.393 79.6836 140.696 78.9496 139.811 78.9246C138.927 78.9015 138.191 79.5952 138.166 80.4771C138.143 81.3072 138.102 82.143 138.046 82.9615C137.985 83.8415 138.651 84.6043 139.534 84.6639C140.075 84.7004 140.572 84.466 140.888 84.076L140.89 84.0779Z"
                  fill="#1A0F91"/>
        </g>
        <path d="M122.874 63.4148C122.809 63.1036 122.552 62.8672 122.236 62.8269L113.2 61.6759C111.407 57.8292 108.985 54.2381 105.968 51.0754L108.205 42.2733C108.284 41.964 108.156 41.6412 107.889 41.4663L98.7505 35.4907C98.4827 35.3159 98.1339 35.3293 97.8816 35.5253L90.6797 41.0801C86.5683 39.5814 82.3007 38.7994 78.0467 38.6918L73.3861 30.885C73.2223 30.6122 72.9025 30.4719 72.5904 30.5353L61.8917 32.7546C61.5796 32.8199 61.3426 33.0755 61.3021 33.3906L60.1481 42.4021C56.2909 44.1909 52.69 46.6062 49.5187 49.6151L40.6928 47.3843C40.3826 47.3056 40.0589 47.4324 39.8836 47.6995L33.8917 56.8128C33.7164 57.0799 33.7298 57.4277 33.9264 57.6794L39.4963 64.8617C37.9935 68.962 37.2094 73.218 37.1015 77.4605L29.2735 82.1084C28.9999 82.2717 28.8593 82.5907 28.9228 82.902L31.1481 93.5716C31.2136 93.8829 31.4699 94.1193 31.7858 94.1596L40.8218 95.3105C42.6156 99.1572 45.0374 102.748 48.0545 105.911L45.8176 114.713C45.7387 115.022 45.8658 115.347 46.1336 115.52L55.2717 121.496C55.5395 121.671 55.8883 121.657 56.1407 121.461L63.3425 115.906C67.4539 117.405 71.7215 118.187 75.9755 118.295L80.6361 126.101C80.7999 126.374 81.1197 126.515 81.4318 126.451L92.1305 124.232C92.4426 124.167 92.6796 123.911 92.7201 123.596L93.8741 114.584C97.7313 112.796 101.332 110.38 104.503 107.371L113.329 109.602C113.64 109.681 113.963 109.554 114.139 109.287L120.131 100.174C120.306 99.9066 120.292 99.5588 120.096 99.3071L114.526 92.1248C116.029 88.0226 116.813 83.7685 116.921 79.526L124.749 74.8781C125.022 74.7148 125.163 74.3958 125.099 74.0845L122.874 63.4148Z"
              fill="#1A0F91"/>
        <path d="M84.4449 86.5604C79.9847 90.6472 73.0237 90.3552 68.9257 85.9071C66.9393 83.7532 65.9143 80.9555 66.0396 78.0331C66.1629 75.1106 67.421 72.409 69.5827 70.43C74.0429 66.3431 81.0039 66.6351 85.1018 71.0833C88.8299 75.1298 88.9224 81.2418 85.5508 85.3883C85.2155 85.7995 84.8475 86.1914 84.4449 86.5604ZM68.5981 78.1407C68.5037 80.383 69.2898 82.5254 70.8119 84.1778C73.9542 87.5864 79.293 87.8131 82.7109 84.6793C86.1326 81.5454 86.3561 76.2212 83.2137 72.8125C80.0714 69.4039 74.7326 69.1772 71.3147 72.311C71.0045 72.5954 70.7194 72.899 70.4593 73.218C69.3283 74.6091 68.6771 76.3191 68.6001 78.1407H68.5981Z"
              fill="#BDD0FB"/>
        <path d="M97.7331 95.5257C98.313 94.8129 98.8583 94.0674 99.3708 93.2911C99.5326 93.0471 99.6887 92.7992 99.8409 92.5494C100.594 91.3178 101.249 90.0285 101.794 88.7008C101.802 88.6835 101.81 88.6643 101.818 88.647C101.839 88.5951 101.86 88.5433 101.879 88.4933C101.92 88.3934 101.958 88.2916 101.999 88.1916C102.101 87.9265 102.014 87.6364 101.806 87.4653C101.756 87.425 101.696 87.3904 101.633 87.3654C101.303 87.2386 100.933 87.4039 100.804 87.7324C100.149 89.4271 99.3072 91.0603 98.2995 92.5917C93.3018 100.197 84.917 104.282 76.4147 104.172C71.6848 104.113 66.9202 102.754 62.6796 99.9815C61.9359 99.4954 61.2231 98.9747 60.541 98.4252C55.9556 94.7168 52.8152 89.5924 51.5975 83.7512C50.1988 77.0416 51.5031 70.1898 55.2697 64.4582C63.0515 52.6222 79.0273 49.3115 90.8916 57.0683C91.6237 57.5468 92.3269 58.0598 93.0032 58.6055C95.9278 60.9708 98.3015 63.949 99.9411 67.3326C99.9834 67.4191 100.043 67.494 100.114 67.5497C100.301 67.7015 100.565 67.74 100.796 67.6285C101.114 67.4748 101.249 67.0944 101.095 66.7754C99.3727 63.2227 96.8815 60.0965 93.8105 57.614C93.1014 57.0414 92.3635 56.5015 91.5948 56C79.139 47.8551 62.3617 51.3406 54.1985 63.7568C50.2431 69.7728 48.8732 76.9667 50.3433 84.0106C51.6226 90.1438 54.9191 95.5238 59.7318 99.4166C60.4466 99.995 61.1961 100.541 61.9764 101.052C68.0107 104.996 75.2221 106.363 82.2852 104.897C88.4351 103.621 93.8316 100.331 97.735 95.5296L97.7331 95.5257Z"
              fill="#BDD0FB"/>
        <g opacity="0.3">
            <path d="M190.039 20.0251C190.309 19.6927 190.34 19.2124 190.083 18.8435C189.607 18.1537 189.103 17.4696 188.584 16.8106C188.247 16.3821 187.627 16.3052 187.195 16.6415C186.764 16.9758 186.689 17.5964 187.026 18.0268C187.519 18.6552 188.001 19.3084 188.455 19.9656C188.765 20.4133 189.38 20.5266 189.831 20.2173C189.91 20.1616 189.979 20.0981 190.037 20.0251H190.039Z"
                  fill="#1A0F91"/>
            <path d="M185.093 14.2762C184.708 14.6624 184.082 14.6643 183.695 14.2801C182.718 13.3097 181.677 12.3798 180.608 11.5132C180.383 11.3307 180.153 11.15 179.922 10.9714C179.491 10.637 179.414 10.0183 179.749 9.58793C180.082 9.19403 180.705 9.08067 181.138 9.415C181.381 9.6033 181.62 9.7916 181.855 9.98182C182.978 10.8887 184.067 11.8648 185.091 12.8832C185.454 13.2425 185.479 13.8151 185.163 14.2032C185.142 14.2282 185.118 14.2532 185.095 14.2781L185.093 14.2762ZM175.774 8.14493C174.339 7.2899 172.838 6.51556 171.312 5.84498C170.811 5.62402 170.586 5.04375 170.805 4.54418C171.025 4.04845 171.609 3.8198 172.11 4.03884C173.709 4.74208 175.283 5.55293 176.788 6.45023C177.256 6.72884 177.41 7.33601 177.131 7.80292C177.106 7.84327 177.079 7.8817 177.048 7.91821C176.743 8.29288 176.2 8.39664 175.774 8.14301V8.14493ZM166.6 4.11378C165 3.63534 163.355 3.2549 161.708 2.97821C161.17 2.88791 160.806 2.37873 160.897 1.84265C160.987 1.30465 161.496 0.94342 162.035 1.03373C163.763 1.32386 165.49 1.72544 167.166 2.22501C167.69 2.38065 167.987 2.9321 167.831 3.45281C167.792 3.57962 167.73 3.69298 167.651 3.79098C167.407 4.09264 166.994 4.23291 166.6 4.1157V4.11378ZM156.712 2.45366C155.042 2.38257 153.352 2.41331 151.691 2.54589C151.146 2.59008 150.67 2.18466 150.626 1.6409C150.581 1.09906 150.988 0.622542 151.531 0.578349C153.275 0.438085 155.045 0.40542 156.797 0.480356C157.342 0.503413 157.766 0.964556 157.743 1.50832C157.733 1.72736 157.652 1.92719 157.523 2.08667C157.332 2.32108 157.038 2.46519 156.712 2.45174V2.45366ZM146.716 3.25106C145.079 3.58538 143.449 4.02539 141.869 4.55763C141.353 4.73248 140.79 4.45387 140.617 3.93701C140.441 3.42014 140.719 2.86101 141.239 2.68808C142.896 2.13086 144.605 1.67164 146.32 1.3181C146.855 1.20858 147.377 1.55251 147.487 2.08475C147.549 2.38641 147.466 2.68423 147.287 2.9052C147.148 3.07621 146.952 3.20302 146.718 3.25106H146.716ZM137.218 6.44447C135.713 7.16501 134.241 7.98738 132.841 8.88853C132.382 9.18443 131.769 9.05185 131.473 8.59455C131.178 8.13725 131.309 7.52816 131.768 7.23033C133.236 6.28691 134.783 5.42419 136.361 4.66715C136.854 4.43081 137.443 4.63833 137.68 5.12829C137.852 5.48376 137.79 5.8911 137.557 6.17739C137.469 6.28691 137.355 6.37914 137.218 6.44447ZM128.795 11.8552C127.517 12.9197 126.292 14.0783 125.15 15.2984C124.776 15.6961 124.152 15.7173 123.751 15.3464C123.352 14.9756 123.335 14.3569 123.703 13.9515C124.901 12.6718 126.186 11.4575 127.525 10.3411C127.945 9.99143 128.567 10.0471 128.918 10.466C129.226 10.833 129.221 11.3595 128.928 11.7188C128.887 11.7668 128.843 11.8129 128.793 11.8552H128.795ZM117.913 23.7777C117.435 23.5144 117.262 22.915 117.526 22.4365C118.258 21.1165 119.075 19.8138 119.951 18.5687C120.084 18.3785 120.217 18.1921 120.354 18.0057C120.66 17.558 121.294 17.4677 121.735 17.7886C122.177 18.1095 122.275 18.7262 121.953 19.1662C121.826 19.3411 121.699 19.5179 121.574 19.6985C120.734 20.8898 119.953 22.1329 119.256 23.3915C119.227 23.4433 119.194 23.4914 119.158 23.5356C118.861 23.9006 118.337 24.0121 117.911 23.7758L117.913 23.7777Z"
                  fill="#1A0F91"/>
        </g>
        <g opacity="0.3">
            <path d="M187.723 70.3416C186.621 71.6635 185.427 72.9278 184.176 74.1037C183.779 74.4765 183.153 74.4592 182.777 74.0615C182.402 73.6637 182.427 73.0412 182.82 72.6665C184.012 71.5463 185.151 70.3397 186.203 69.0792C186.552 68.6603 187.176 68.6046 187.596 68.9524C188.012 69.2982 188.072 69.9131 187.733 70.332C187.731 70.3358 187.727 70.3397 187.725 70.3416H187.723ZM189.424 66.4718C188.966 66.1759 188.835 65.5649 189.132 65.1076C190.024 63.7319 190.842 62.287 191.563 60.8151C191.802 60.329 192.395 60.1215 192.887 60.3617C193.378 60.5999 193.58 61.1898 193.341 61.6798C192.586 63.2227 191.729 64.7349 190.792 66.1778C190.773 66.2086 190.752 66.2374 190.729 66.2643C190.415 66.6505 189.852 66.7466 189.424 66.4699V66.4718ZM180.194 77.4105C178.803 78.427 177.337 79.3684 175.84 80.2062C175.364 80.4733 174.759 80.3042 174.493 79.8277C174.225 79.3531 174.395 78.7536 174.871 78.4846C176.3 77.6853 177.697 76.788 179.026 75.8176C179.467 75.4948 180.086 75.5909 180.408 76.029C180.679 76.3979 180.654 76.8936 180.379 77.2337C180.327 77.2991 180.265 77.3567 180.194 77.4086V77.4105ZM194.068 57.518C193.551 57.3412 193.276 56.7801 193.455 56.2633C193.989 54.7146 194.434 53.116 194.775 51.5154C194.888 50.9832 195.414 50.6431 195.948 50.7545C196.482 50.8679 196.825 51.3924 196.711 51.9247C196.355 53.604 195.888 55.2814 195.328 56.905C195.289 57.0165 195.231 57.1183 195.16 57.2048C194.906 57.518 194.474 57.6544 194.07 57.516L194.068 57.518ZM171.177 82.4523C169.586 83.1037 167.936 83.6648 166.276 84.1221C165.75 84.2662 165.204 83.9568 165.06 83.4323C164.915 82.9077 165.224 82.364 165.752 82.2199C167.335 81.7856 168.908 81.2495 170.426 80.6289C170.931 80.4214 171.508 80.6635 171.717 81.1669C171.859 81.5128 171.79 81.8913 171.57 82.1641C171.47 82.2871 171.337 82.3889 171.179 82.4543L171.177 82.4523ZM161.211 85.1904C159.505 85.444 157.77 85.5958 156.051 85.6419C155.506 85.6573 155.051 85.2288 155.036 84.6831C155.02 84.1394 155.45 83.684 155.997 83.6705C157.635 83.6263 159.292 83.4803 160.92 83.2382C161.459 83.1575 161.964 83.5303 162.043 84.0683C162.085 84.3526 162 84.6274 161.833 84.8349C161.683 85.0194 161.465 85.1519 161.211 85.1885V85.1904ZM150.872 85.469C149.154 85.3076 147.431 85.0386 145.751 84.6716C145.217 84.5544 144.88 84.0298 144.996 83.4957C145.113 82.9634 145.641 82.6272 146.173 82.7425C147.774 83.0922 149.418 83.3477 151.055 83.5014C151.598 83.5533 151.999 84.0337 151.947 84.5755C151.928 84.7773 151.851 84.9579 151.731 85.1039C151.529 85.3518 151.213 85.4978 150.87 85.4651L150.872 85.469Z"
                  fill="#1A0F91"/>
            <path d="M197.264 47.3036C197.384 47.1557 197.463 46.9712 197.48 46.7676C197.553 45.926 197.601 45.0786 197.624 44.2505C197.64 43.7067 197.208 43.2514 196.663 43.2379C196.118 43.2245 195.663 43.6529 195.648 44.1967C195.627 44.9883 195.58 45.7953 195.511 46.5985C195.465 47.1422 195.867 47.6188 196.411 47.6668C196.75 47.6956 197.066 47.5496 197.264 47.3036Z"
                  fill="#1A0F91"/>
        </g>
        <path d="M185.331 32.7757C185.286 32.5663 185.115 32.4087 184.903 32.3818L178.855 31.6113C177.655 29.0366 176.035 26.6348 174.015 24.5174L175.512 18.6282C175.564 18.4207 175.48 18.2055 175.302 18.0883L169.187 14.0898C169.008 13.9726 168.775 13.9822 168.605 14.1129L163.787 17.8309C161.036 16.8279 158.18 16.3033 155.335 16.2341L152.215 11.0117C152.106 10.8292 151.892 10.735 151.684 10.7773L144.524 12.2626C144.314 12.3067 144.156 12.4778 144.129 12.6891L143.357 18.7205C140.775 19.9175 138.367 21.5334 136.243 23.5471L130.338 22.0542C130.13 22.0023 129.914 22.0868 129.797 22.2636L125.787 28.3622C125.67 28.5409 125.68 28.7734 125.811 28.9425L129.539 33.748C128.533 36.4918 128.007 39.3393 127.938 42.1773L122.699 45.2881C122.516 45.3976 122.422 45.6109 122.466 45.8184L123.955 52.9584C124 53.1678 124.171 53.3254 124.383 53.3523L130.431 54.1228C131.631 56.6975 133.251 59.0993 135.27 61.2167L133.773 67.1059C133.721 67.3115 133.806 67.5286 133.983 67.6458L140.099 71.6443C140.278 71.7615 140.511 71.7519 140.68 71.6212L145.499 67.9033C148.25 68.9063 151.106 69.4308 153.951 69.5L157.07 74.7224C157.18 74.905 157.394 74.9991 157.602 74.9568L164.762 73.4716C164.972 73.4274 165.13 73.2564 165.157 73.045L165.929 67.0137C168.511 65.8166 170.919 64.2007 173.042 62.187L178.948 63.68C179.154 63.7319 179.371 63.6473 179.489 63.4705L183.498 57.3719C183.616 57.1932 183.606 56.9607 183.475 56.7917L179.747 51.9862C180.753 49.2424 181.277 46.3948 181.348 43.5569L186.587 40.4461C186.77 40.3365 186.864 40.1233 186.82 39.9158L185.331 32.7757Z"
              fill="#1A0F91"/>
        <path d="M159.706 48.3585C158.234 49.7074 156.325 50.4048 154.327 50.3203C152.331 50.2358 150.485 49.3826 149.135 47.9147C146.343 44.8865 146.543 40.1636 149.582 37.3718C152.62 34.5876 157.361 34.7894 160.153 37.8176C161.506 39.2855 162.205 41.1897 162.12 43.1803C162.051 44.7981 161.473 46.318 160.467 47.5534C160.236 47.8378 159.982 48.1068 159.708 48.3585H159.706ZM150.591 46.5793C151.585 47.6591 152.944 48.2874 154.412 48.3489C155.88 48.4104 157.284 47.8974 158.367 46.9059C159.448 45.9125 160.08 44.5598 160.142 43.0957C160.203 41.6316 159.689 40.2309 158.695 39.151C156.641 36.9222 153.154 36.7761 150.919 38.8225C150.716 39.0069 150.533 39.2029 150.366 39.4104C148.676 41.4894 148.722 44.5522 150.591 46.5793Z"
              fill="#BDD0FB"/>
        <path d="M168.954 54.5993C169.349 54.1151 169.721 53.6059 170.071 53.0737C170.767 52.015 171.357 50.8871 171.823 49.7131C171.844 49.6612 171.863 49.6074 171.884 49.5536C172.042 49.1444 171.909 48.6948 171.586 48.4335C171.507 48.37 171.416 48.3162 171.318 48.2797C170.809 48.0837 170.237 48.3393 170.041 48.8446C169.617 49.9437 169.07 51.0024 168.42 51.99C168.386 52.0438 168.349 52.0995 168.312 52.1514C166.752 54.4763 164.669 56.3267 162.247 57.591C160.933 58.2769 159.517 58.7919 158.032 59.1147C158.02 59.1166 158.007 59.1204 157.995 59.1224C157.959 59.13 157.922 59.1377 157.883 59.1454C153.527 60.0485 149.081 59.2069 145.36 56.7744C144.879 56.4593 144.416 56.123 143.975 55.7675C141.008 53.3677 138.973 50.0494 138.185 46.268C137.28 41.9236 138.124 37.489 140.563 33.7787C143.002 30.0723 146.744 27.5283 151.1 26.6233C155.456 25.7202 159.903 26.5618 163.623 28.9944C164.097 29.3037 164.552 29.6361 164.989 29.9897C166.883 31.521 168.418 33.4482 169.48 35.6387C169.545 35.7732 169.638 35.8865 169.748 35.9749C170.037 36.2074 170.445 36.2689 170.802 36.0979C171.293 35.8596 171.499 35.2717 171.262 34.7798C170.073 32.328 168.355 30.1722 166.237 28.4583C165.748 28.0625 165.239 27.6916 164.71 27.3438C160.546 24.6212 155.571 23.6797 150.697 24.6904C145.825 25.701 141.636 28.539 138.91 32.695C136.18 36.8453 135.236 41.8084 136.249 46.6677C137.131 50.8986 139.405 54.6108 142.726 57.297C143.22 57.6947 143.736 58.0733 144.274 58.4249C152.333 63.6934 163.012 61.9104 168.956 54.5993H168.954Z"
              fill="#BDD0FB"/>
        <path d="M69.3536 520.559C69.3536 520.559 68.24 526.516 67.6659 532.416C67.4405 534.722 69.2072 536.743 71.5269 536.863C79.4108 537.264 96.2728 538.063 102.328 537.85C103.24 537.817 103.843 536.895 103.513 536.048C103.238 535.339 102.698 534.76 102.008 534.436L74.2666 521.399L69.3536 520.559Z"
              fill="url(#paint5_linear_518_900)"/>
        <path d="M68.5215 517.045L69.3018 524.189C69.3018 524.189 74.1608 526.502 77.5189 523.981L75.573 516.009L68.5195 517.045H68.5215Z"
              fill="url(#paint6_linear_518_900)"/>
        <path d="M70.4425 382.887C70.0571 384.747 67.5852 475.867 76.9622 516.801C77.1145 517.47 76.7696 518.152 76.1319 518.405C74.6271 519.001 71.6813 519.858 68.1613 519.942C67.0708 519.969 66.0998 519.253 65.8031 518.205C63.1019 508.704 50.176 461.101 48.864 415.732C47.3978 365.037 48.8813 414.006 48.8813 414.006L50.3244 382.693L70.4444 382.889L70.4425 382.887Z"
              fill="url(#paint7_linear_518_900)"/>
        <path d="M37.2712 523.366C37.2712 523.366 35.5603 526.362 33.8553 534.351C33.547 535.794 34.5469 537.187 36.017 537.345C38.6179 537.625 42.6234 537.992 45.8352 538C47.3148 538.004 48.4824 536.73 48.3186 535.262C47.9911 532.338 46.9295 527.534 43.5405 523.766L37.2693 523.366H37.2712Z"
              fill="url(#paint8_linear_518_900)"/>
        <path d="M35.8799 514.174L37.7603 524.986C37.7603 524.986 39.7081 526.46 43.598 525.442L42.7619 513.821L35.8799 514.174Z"
              fill="url(#paint9_linear_518_900)"/>
        <path d="M31.7532 385.316C23.3048 433.322 32.3485 504.175 35.4947 518.056C35.6874 518.905 36.3675 519.562 37.2268 519.712C38.6872 519.967 41.0955 520.188 43.4788 519.522C44.2995 519.293 44.8814 518.561 44.9237 517.712C45.4709 506.519 45.336 437.774 53.0407 410.68C53.4318 409.307 54.2853 408.115 55.4606 407.299L70.0068 397.192L71.2726 380.645L31.7532 385.314V385.316Z"
              fill="url(#paint10_linear_518_900)"/>
        <path d="M83.5322 294.691C59.5935 294.069 33.1136 300.481 33.1136 300.481C25.5804 341.941 31.0097 389.896 31.0097 389.896C49.4979 394.921 70.481 387.308 70.481 387.308C73.7274 369.979 88.5684 321.265 88.5684 321.265C100.281 319.927 109.949 316.653 117.927 312.28C111.941 305.225 109.172 296.294 107.983 291.02C99.4926 293.562 90.9151 294.882 83.5302 294.689L83.5322 294.691Z"
              fill="#FF9D15"/>
        <path d="M154.587 260.194C152.262 257.339 149.274 258.651 149.274 258.651C145.609 273.46 127.021 285.319 107.985 291.02C109.174 296.294 111.943 305.227 117.929 312.28C149.595 294.918 154.589 260.194 154.589 260.194H154.587Z"
              fill="url(#paint11_linear_518_900)"/>
        <path d="M154.009 260.909C154.248 261.691 151.387 262.853 149.739 259.645C149.695 258.115 148.826 251.553 149.753 250.316C154.697 243.727 164.237 235.5 164.237 235.5C165.821 237.089 164.49 238.622 164.49 238.622L159.854 243.347C160.798 245.086 161.954 246.558 162.484 248.656C162.885 250.245 162.613 251.936 161.798 253.371C160.979 254.81 159.862 256.682 158.808 258.146C156.814 260.915 154.009 260.909 154.009 260.909Z"
              fill="url(#paint12_linear_518_900)"/>
        <path d="M157.818 246.423L153.6 249.92L152.253 253.429L155.943 257.591C155.943 257.591 157.265 250.616 158.211 249.113C159.157 247.611 158.681 246.875 157.818 246.423Z"
              fill="url(#paint13_linear_518_900)"/>
        <path d="M42.0741 323.688L33.1132 300.481C33.1132 300.481 10.6061 315.422 6.74316 334.6C10.9664 334.949 18.6441 336.119 26.133 339.981C27.8728 330.926 42.0741 323.69 42.0741 323.69V323.688Z"
              fill="#FF9D15"/>
        <path d="M61.4102 345.628C61.4102 345.628 36.1672 359.542 27.8113 347.377C26.0773 344.85 25.6804 342.354 26.1351 339.981C18.6462 336.119 10.9666 334.951 6.74528 334.599C5.58159 340.381 6.10756 346.547 9.46186 352.805C24.0428 380.018 64.6739 351.835 64.6739 351.835L61.4102 345.628Z"
              fill="url(#paint14_linear_518_900)"/>
        <path d="M59.4663 275.076L51.6383 296.974C51.5093 297.337 51.6557 297.741 51.9909 297.931C54.0563 299.095 61.5067 302.477 70.5773 296.861C71.5214 296.277 72.1707 295.314 72.3248 294.215L74.9739 275.224L59.4683 275.076H59.4663Z"
              fill="url(#paint15_linear_518_900)"/>
        <path d="M76.2358 254.889C76.2358 254.889 84.4511 270.672 83.3182 277.007C82.1853 283.34 71.8219 282.786 62.8186 277.548L56.6553 260.532L76.2378 254.891L76.2358 254.889Z"
              fill="url(#paint16_linear_518_900)"/>
        <path d="M63.2981 269.223C63.6681 269.063 63.8068 268.616 63.591 268.278C62.9302 267.25 61.6932 265.155 61.3098 263.328C61.3098 263.328 59.8148 262.354 65.1593 261.132C70.5019 259.91 78.4725 258.009 80.1872 253.5C81.8595 249.104 77.6845 237.965 70.7697 246.742C70.5077 247.077 69.9971 247.078 69.7409 246.74C68.635 245.276 65.7199 242.233 61.6162 244.021C57.7764 245.697 57.3178 248.487 57.3564 249.897C57.3679 250.312 56.9941 250.631 56.5857 250.549C54.6552 250.162 50.0197 249.803 47.8079 254.528C45.9872 258.421 47.1258 260.646 48.1701 261.737C48.5092 262.091 48.3531 262.667 47.883 262.805C46.6076 263.182 44.9584 264.241 45.0932 267.211C45.282 271.317 49.8867 271 51.1988 270.825C51.4146 270.797 51.6303 270.871 51.7729 271.035C52.8846 272.286 57.8958 277.598 63.3675 278.284C63.8415 278.344 64.2133 277.881 64.063 277.427L61.7587 270.531C61.6509 270.21 61.8088 269.863 62.119 269.728L63.3001 269.221L63.2981 269.223Z"
              fill="url(#paint17_linear_518_900)"/>
        <path d="M64.2423 270.207C64.2423 270.207 58.3255 266.076 57.8574 269.503C57.3892 272.931 63.173 274.526 66.0572 273.273L64.2423 270.207Z"
              fill="url(#paint18_linear_518_900)"/>
        <path d="M56.2507 367.615L70.0012 319.724C70.1573 319.18 70.6216 318.784 71.1861 318.719C73.6773 318.429 80.8964 317.616 89.2331 316.913C99.2728 316.065 110.933 315.379 117.9 315.964C118.89 316.046 119.489 317.091 119.048 317.979C115.087 325.974 98.7892 358.491 90.628 369.143C90.3582 369.496 89.9401 369.702 89.4931 369.698L57.5878 369.402C56.6592 369.393 55.9945 368.505 56.2507 367.615Z"
              fill="url(#paint19_linear_518_900)"/>
        <path d="M59.5722 356.045C59.5722 356.045 57.6571 348.19 58.4297 345.402C59.2023 342.616 60.6993 339.032 65.6894 339.828C70.6794 340.623 76.5653 342.719 76.5653 342.719C76.5653 342.719 76.2686 346.349 72.475 345.179L74.8275 346.995C74.8275 346.995 74.4922 349.902 71.2882 348.349L73.475 350.757C73.475 350.757 72.0993 353.143 69.743 351.614C67.3867 350.082 66.2558 356.992 59.5722 356.046V356.045Z"
              fill="url(#paint20_linear_518_900)"/>
        <path d="M88.3159 331.208C88.3159 333.431 90.1231 335.234 92.3523 335.234C94.5814 335.234 96.3886 333.431 96.3886 331.208C96.3886 328.985 94.5814 327.183 92.3523 327.183C90.1231 327.183 88.3159 328.985 88.3159 331.208Z"
              fill="#91B3FA"/>
        <path d="M71.5581 333.862L74.3575 324.391C74.7005 323.228 75.6388 322.354 76.8044 322.112C85.5803 320.287 109.598 319.899 109.839 319.895L109.823 318.825C108.833 318.84 85.4608 319.218 76.5847 321.065C75.0319 321.388 73.7834 322.546 73.3268 324.089L70.5273 333.56L71.5562 333.864L71.5581 333.862Z"
              fill="#BDD0FB"/>
        <path d="M428.944 262.638C429.325 261.912 430.404 262.025 430.624 262.817C431.439 265.743 433.414 270.852 437.554 272.666C437.762 272.758 437.961 272.851 438.151 272.943C438.34 272.382 438.342 271.728 437.891 271.042C436.604 269.081 438.928 266.4 438.928 266.4C438.928 266.4 439.082 268.76 440.881 270.247C442.43 271.527 443.174 274.376 442.116 276.713C439.876 285.396 436.518 296.88 449.594 305.269C462.668 313.658 481.081 289.436 481.081 289.436L471.943 318.329C471.943 318.329 457.838 328.71 441.431 314.113C425.023 299.516 435.899 278.275 435.899 278.275C435.899 278.275 423.386 273.241 428.944 262.638Z"
              fill="url(#paint21_linear_518_900)"/>
        <path d="M483.37 246.986C483.37 246.986 479.582 230.041 499.045 234.528C499.045 234.528 508.493 232.989 508.973 241.881C508.973 241.881 515.063 245.883 510.605 253.579C510.605 253.579 528.704 246.608 536.59 262.427C544.475 278.248 537.227 286.952 529.629 289.219C529.629 289.219 535.784 292.301 532.871 299.262C529.958 306.224 515.2 311.129 506.482 302.665C506.482 302.665 481.676 305.934 482.173 288.46C482.173 288.46 470.636 281.03 482.753 266.591C494.872 252.149 483.372 246.986 483.372 246.986H483.37Z"
              fill="url(#paint22_linear_518_900)"/>
        <path d="M482.303 286.262C486.214 285.092 497.6 282.934 508.432 292.903C510.268 294.593 511.019 297.162 510.364 299.568C507.455 310.249 499.779 341.809 506.509 355.462C506.509 355.462 494.649 368.501 481.709 357.993C481.709 357.993 475.904 332.759 468.3 321.682C463.05 314.034 476.671 292.962 480.118 287.872C480.64 287.102 481.409 286.531 482.303 286.264V286.262Z"
              fill="#FF9D15"/>
        <path d="M493.1 265.042C493.1 265.042 498.883 281.359 499.319 288.556C499.319 288.556 492.926 291.456 486.904 286.562C486.904 286.562 486.272 270.264 485.358 267.346L493.102 265.04L493.1 265.042Z"
              fill="url(#paint23_linear_518_900)"/>
        <path d="M485.065 242.796C485.065 242.796 469.937 263.91 478.981 270.043C488.025 276.177 498.795 261.172 498.795 261.172C498.795 261.172 502.305 249.615 498.635 245.695C494.964 241.775 485.067 242.797 485.067 242.797L485.065 242.796Z"
              fill="url(#paint24_linear_518_900)"/>
        <path d="M492.069 237.748C492.069 237.748 485.119 239.391 484.144 242.527C483.169 245.662 494.001 248.571 497.036 248.714L499.481 261.368C499.481 261.368 506.709 249.463 503.844 242.588C500.981 235.713 492.069 237.748 492.069 237.748Z"
              fill="url(#paint25_linear_518_900)"/>
        <path d="M495.86 259.616C495.86 259.616 501.748 252.814 504.091 257.249C506.434 261.683 498.791 265.011 496.145 262.834L495.86 259.616Z"
              fill="url(#paint26_linear_518_900)"/>
        <path d="M466.604 410.974C466.649 412.12 464.631 421.206 463.535 426.054C463.094 428.004 463.4 430.045 464.396 431.78L502.407 495.583C502.868 496.355 503.201 497.191 503.405 498.065C504.103 501.059 505.546 508.397 504.793 515.072L502.825 519.145L511.33 517.22L513.179 494.443L510.771 492.979C508.69 491.715 507.072 489.824 506.145 487.576C502.708 479.25 494.173 458.055 491.973 447.726C489.472 435.986 476.401 426.451 476.401 426.451L478.698 421.037L466.604 410.974Z"
              fill="url(#paint27_linear_518_900)"/>
        <path d="M520.784 509.382C520.784 509.382 516.19 502.121 515.651 499.295C515.111 496.468 513.607 491.476 510.775 492.979C510.775 492.979 509.439 506.71 509.9 512.074C510.36 517.439 503.819 517.266 503.819 517.266C503.819 517.266 502.016 517.519 500.696 518.836C499.785 519.744 500.436 521.322 501.723 521.405C503.864 521.543 507.264 521.578 510.834 520.89C512.083 520.649 513.008 519.591 513.083 518.325L514.025 502.523L519.818 509.818L520.784 509.382Z"
              fill="url(#paint28_linear_518_900)"/>
        <path d="M489.312 421.137C489.312 421.137 490.653 478.207 490.834 486.314C491.015 494.42 489.551 512.382 481.403 517.75L484.948 520.367C484.948 520.367 489.379 516.611 493.706 509.384C498.569 501.264 500.039 499.781 500.039 499.781L498.425 496.486C497.718 495.043 497.512 493.411 497.835 491.838C499.594 483.339 505.467 455.071 507.07 448.984C508.962 441.798 509.095 432.202 502.515 424.169C495.936 416.135 489.308 421.135 489.308 421.135L489.312 421.137Z"
              fill="url(#paint29_linear_518_900)"/>
        <path d="M496.835 522.942C497.088 522.944 497.303 522.763 497.338 522.513C497.61 520.611 498.739 512.983 499.662 511.008C500.719 508.746 504.176 499.226 499.66 498.417C499.66 498.417 488.433 514.776 486.277 516.981C484.121 519.187 481.403 517.752 481.403 517.752C481.403 517.752 479.303 518.371 477.719 520.388C476.966 521.349 477.667 522.759 478.89 522.771L486.452 522.842C488.649 522.863 490.624 521.531 491.441 519.499C492.772 516.182 495.059 511.319 497.723 509.161L496.338 522.385C496.307 522.679 496.537 522.936 496.835 522.94V522.942Z"
              fill="url(#paint30_linear_518_900)"/>
        <path d="M479.919 351.84C479.919 351.84 481.622 357.257 479.006 366.18L462.766 422.739C462.512 423.629 462.992 424.559 463.864 424.87C468.722 426.609 484.692 431.524 506.492 430.025C507.59 429.95 508.509 429.174 508.748 428.104C510.185 421.656 515.084 399.657 516.094 395.136C519.94 377.912 524.232 359.338 505.345 348.105C496.641 351.823 488.524 354.016 479.921 351.84H479.919Z"
              fill="url(#paint31_linear_518_900)"/>
        <path d="M509.981 295.035C509.981 295.035 528.459 310.349 533.045 331.277C537.63 352.204 506.045 354.429 506.045 354.429C506.045 354.429 501.756 349.654 496.666 351.356C491.576 353.059 496.271 343.021 502.228 343.048C508.185 343.075 505.424 347.771 513.852 343.965C522.059 340.256 527.134 328.789 506.191 311.406C504.977 310.399 504.008 309.114 503.425 307.65C499.355 297.435 502.583 290.741 509.983 295.035H509.981Z"
              fill="url(#paint32_linear_518_900)"/>
        <path d="M394.355 451.39H387.764V522.475H394.355V451.39Z" fill="#7D97F4"/>
        <path d="M419.923 523.845H362.195V520.04C362.195 519.777 362.409 519.566 362.671 519.566H419.445C419.709 519.566 419.921 519.779 419.921 520.04V523.845H419.923Z"
              fill="#7D97F4"/>
        <path d="M423.306 434.464H361.235C357.075 434.464 353.702 437.827 353.702 441.977V448.769C353.702 452.918 357.075 456.282 361.235 456.282H423.306C427.467 456.282 430.84 452.918 430.84 448.769V441.977C430.84 437.827 427.467 434.464 423.306 434.464Z"
              fill="#7D97F4"/>
        <path d="M332.632 500.888C332.632 500.888 311.324 510.041 312.545 519.62C312.545 519.62 334.571 515.408 338.513 509.129C342.455 502.849 340.283 499.214 340.283 499.214L332.632 500.89V500.888Z"
              fill="url(#paint33_linear_518_900)"/>
        <path d="M337.852 490.425L338.934 499.752C339.098 501.159 338.314 502.548 336.977 503.028C336.308 503.268 335.43 503.433 334.278 503.439C332.652 503.447 331.212 502.382 330.779 500.82L328.683 493.277L337.853 490.427L337.852 490.425Z"
              fill="url(#paint34_linear_518_900)"/>
        <path d="M384.399 418.908C384.399 418.908 345.208 417.1 325.706 428.44C306.204 439.782 326.694 494.216 326.694 494.216C326.694 494.216 331.788 495.308 339.123 491.4C339.123 491.4 328.656 451.551 346.837 444.619C367.281 436.825 388.424 438.72 388.424 438.72L384.507 420.138L384.398 418.906L384.399 418.908Z"
              fill="url(#paint35_linear_518_900)"/>
        <path d="M316.828 515.416C321.284 514.441 334.499 508.981 336.507 509.054C338.515 509.127 341.358 512.126 341.358 512.126C341.358 512.126 341.848 513.765 340.412 516.119C337.008 518.767 329.673 523.628 321.144 524.16C314.871 524.552 311.096 522.062 308.938 519.648C310.829 517.813 313.861 516.063 316.828 515.414V515.416Z"
              fill="url(#paint36_linear_518_900)"/>
        <path d="M321.144 524.162C329.671 523.63 337.006 518.768 340.412 516.121C339.441 517.712 337.594 519.627 334.12 521.585C325.502 526.441 311.258 525.734 308.436 524.64C306.174 523.764 306.873 521.656 308.94 519.65C311.1 522.066 314.873 524.554 321.146 524.162H321.144Z"
              fill="url(#paint37_linear_518_900)"/>
        <path d="M346.036 507.246C345.745 508.347 342.622 511.651 340.819 513.496C339.961 514.372 338.717 514.747 337.516 514.486C336.755 514.32 335.896 514.061 335.154 513.659C334.039 513.056 333.651 511.642 334.262 510.533L338.826 502.256L346.036 507.246Z"
              fill="url(#paint38_linear_518_900)"/>
        <path d="M423.239 415.63C423.239 415.63 426.661 439.834 416.769 444.78C406.878 449.728 385.184 452.965 377.71 465.52C370.239 478.073 356.818 502.713 344.605 509.791C344.605 509.791 337.63 507.53 335.592 504.108C335.592 504.108 350.088 466.102 356.136 456.864C361.372 448.865 369.031 437.338 379.912 432.354C383.028 430.926 383.271 427.631 382.723 424.257L381.725 418.112L423.241 415.63H423.239Z"
              fill="url(#paint39_linear_518_900)"/>
        <path d="M331.565 388.192C345.433 392.141 351.639 353.218 351.583 352.273L372.843 377.065C372.843 377.065 360.176 399.296 341.046 401.663C336.206 402.263 332.089 401.427 328.636 399.849C331.181 395.693 331.761 391.589 331.565 388.194V388.192Z"
              fill="#FF9D15"/>
        <path d="M305.885 375.453C311.928 372.976 317.055 377.918 317.055 377.918C323.043 384.032 327.794 387.118 331.565 388.192C331.763 391.587 331.182 395.691 328.636 399.847C321.165 396.433 316.809 389.533 315.015 386.088C314.37 384.849 312.855 384.324 311.593 384.931C310.312 385.55 308.992 386.492 308.909 387.771C308.746 390.296 305.734 390.444 305.717 389.512C305.7 388.58 308.05 383.594 308.05 383.594C308.05 383.594 301.106 388.036 298.403 389.735C295.7 391.433 293.398 388.63 293.398 388.63C293.398 388.63 299.843 377.93 305.887 375.451L305.885 375.453Z"
              fill="url(#paint40_linear_518_900)"/>
        <path d="M417.896 336.258C417.896 336.258 399.262 323.578 354.255 346.508C354.255 346.508 349.62 352.369 351.791 358.973C353.962 365.579 380.685 401.329 381.723 418.111C381.723 418.111 399.99 428.834 423.703 418.203C423.703 418.203 431.654 373.887 417.896 336.256V336.258Z"
              fill="#FF9D15"/>
        <path d="M379.093 320.047L386.457 334.438C387.189 335.868 387.035 337.597 386.031 338.85C384.002 341.384 379.77 344.789 372.545 342.595C370.394 341.941 368.751 340.199 368.233 338.018L364.416 321.955L379.093 320.047Z"
              fill="url(#paint41_linear_518_900)"/>
        <path d="M431.697 386.511C432.959 377.762 409.779 360.808 409.779 360.808L417.898 336.258C417.898 336.258 462.13 367.738 452.828 393.445C451.495 397.13 449.507 399.815 447.081 401.719C442.398 392.139 436.045 388.157 431.699 386.511H431.697Z"
              fill="#FF9D15"/>
        <path d="M399.358 388.937C399.358 388.937 425.58 396.241 431.018 388.28C431.386 387.74 431.604 387.145 431.697 386.509C436.043 388.155 442.395 392.137 447.079 401.717C434.629 411.484 410.625 400.535 404.103 397.253C403.03 396.714 401.797 396.608 400.649 396.965C398.329 397.688 394.31 398.808 392.069 398.685C388.792 398.506 385.276 410.313 379.7 407.324C379.7 407.324 382.234 387.149 399.358 388.936V388.937Z"
              fill="url(#paint42_linear_518_900)"/>
        <path d="M369.653 296.528C369.42 296.73 359.706 313.65 354.76 322.275C353.25 324.908 354.381 328.261 357.176 329.456L359.319 330.37C362.245 331.621 368.54 332.668 371.017 330.674L386.633 314.234C386.633 314.234 374.905 291.994 369.651 296.526L369.653 296.528Z"
              fill="url(#paint43_linear_518_900)"/>
        <path d="M391.035 309.75C392.95 308.678 395.253 306.504 393.461 302.66C391.638 298.753 388.037 298.413 385.718 298.663C384.779 298.763 383.932 298.169 383.658 297.268C383.502 296.755 383.122 296.302 382.3 296.173C381.192 295.998 380.504 294.87 380.793 293.788C381.348 291.711 381.254 288.891 377.905 286.869C371.961 283.28 366.405 288.493 364.858 293.024C363.311 297.554 369.977 301.08 374.233 301.801C377.468 302.348 379.048 306.07 379.618 307.822C379.799 308.378 379.712 308.983 379.391 309.471L374.643 316.665C375.95 318.304 377.105 320.035 378.246 321.785C378.674 321.326 379.048 320.944 379.338 320.677C381.4 318.792 385.068 319.766 386.579 320.283C387.074 320.452 387.612 320.414 388.078 320.173C389.721 319.326 393.043 316.945 390.32 312.442C389.75 311.5 390.074 310.286 391.035 309.746V309.75Z"
              fill="url(#paint44_linear_518_900)"/>
        <path d="M376.516 324.864C376.516 324.864 379.55 317.084 383.001 317.518C386.451 317.952 389.033 321.505 384.579 325.194C379.04 329.782 376.514 324.866 376.514 324.866L376.516 324.864Z"
              fill="url(#paint45_linear_518_900)"/>
        <path d="M365.877 405.589C365.83 405.591 365.782 405.592 365.736 405.592L304.478 405.525C302.964 405.525 301.738 404.297 301.738 402.787C301.738 401.277 302.973 400.028 304.484 400.055L365.742 400.122C367.256 400.122 368.481 401.35 368.481 402.858C368.481 404.322 367.325 405.516 365.877 405.587V405.589Z"
              fill="url(#paint46_linear_518_900)"/>
        <path d="M249.411 350.121H300.426C304.189 350.121 307.615 352.286 309.222 355.681L332.806 405.556H269.407C266.982 405.556 264.803 404.078 263.913 401.828L245.623 355.678C244.567 353.011 246.536 350.121 249.413 350.121H249.411Z"
              fill="url(#paint47_linear_518_900)"/>
        <path d="M285.352 375.693C286.458 379.119 285.641 382.445 283.528 383.123C281.414 383.801 278.806 381.575 277.7 378.149C276.594 374.723 277.411 371.397 279.524 370.718C281.638 370.04 284.246 372.267 285.352 375.693Z"
              fill="#91B3FA"/>
        <path d="M257.682 536.618C257.343 536.618 256.998 536.553 256.667 536.415C255.36 535.873 254.757 534.411 255.32 533.15L309.307 411.975C309.867 410.715 311.382 410.133 312.688 410.675C313.994 411.216 314.597 412.679 314.035 413.939L260.048 535.114C259.63 536.054 258.68 536.618 257.682 536.618Z"
              fill="#91B3FA"/>
        <path d="M318.501 536.618C317.503 536.618 316.553 536.056 316.135 535.114L262.148 413.939C261.585 412.679 262.19 411.216 263.495 410.675C264.799 410.133 266.315 410.715 266.876 411.975L320.863 533.15C321.425 534.411 320.82 535.873 319.516 536.415C319.184 536.553 318.84 536.618 318.501 536.618Z"
              fill="#91B3FA"/>
        <path d="M424.796 536.618C424.457 536.618 424.112 536.553 423.781 536.415C422.474 535.873 421.871 534.411 422.434 533.15L476.421 411.975C476.983 410.715 478.496 410.133 479.802 410.675C481.108 411.216 481.711 412.679 481.149 413.939L427.162 535.114C426.744 536.054 425.794 536.618 424.796 536.618Z"
              fill="#91B3FA"/>
        <path d="M485.615 536.618C484.617 536.618 483.667 536.056 483.249 535.114L429.262 413.939C428.7 412.679 429.305 411.216 430.609 410.675C431.913 410.133 433.429 410.715 433.99 411.975L487.977 533.15C488.539 534.411 487.934 535.873 486.63 536.415C486.299 536.553 485.954 536.618 485.615 536.618Z"
              fill="#91B3FA"/>
        <path d="M491.947 408.234C492.084 407.439 491.897 406.618 491.437 405.994C490.976 405.37 490.289 405.008 489.564 405.008H243.96C243.007 405.008 242.118 405.55 241.606 406.447C241.092 407.345 241.024 408.471 241.423 409.437L244.084 415.868C244.692 417.342 246.014 418.283 247.467 418.283H487.878C489.231 418.283 490.393 417.213 490.649 415.732L491.949 408.234H491.947Z"
              fill="#91B3FA"/>
    </g>
    <defs>
        <linearGradient id="paint0_linear_518_900" x1="604.08" y1="693.701" x2="127.759" y2="100.534"
                        gradientUnits="userSpaceOnUse">
            <stop stop-color="#DAE3FE"/>
            <stop offset="1" stop-color="#26304F"/>
        </linearGradient>
        <linearGradient id="paint1_linear_518_900" x1="386.456" y1="59.4509" x2="-9.91122" y2="587.124"
                        gradientUnits="userSpaceOnUse">
            <stop stop-color="#26304F"/>
            <stop offset="1" stop-color="#26304F"/>
        </linearGradient>
        <linearGradient id="paint2_linear_518_900" x1="386.455" y1="59.4513" x2="-9.91162" y2="587.122"
                        gradientUnits="userSpaceOnUse">
            <stop stop-color="#26304F"/>
            <stop offset="1" stop-color="#26304F"/>
        </linearGradient>
        <linearGradient id="paint3_linear_518_900" x1="185.565" y1="250.574" x2="363.291" y2="142.769"
                        gradientUnits="userSpaceOnUse">
            <stop stop-color="#09005D"/>
            <stop offset="1" stop-color="#1A0F91"/>
        </linearGradient>
        <linearGradient id="paint4_linear_518_900" x1="245.567" y1="250.543" x2="371.274" y2="145.99"
                        gradientUnits="userSpaceOnUse">
            <stop stop-color="#09005D"/>
            <stop offset="1" stop-color="#1A0F91"/>
        </linearGradient>
        <linearGradient id="paint5_linear_518_900" x1="101.601" y1="512.39" x2="-1.17836" y2="622.391"
                        gradientUnits="userSpaceOnUse">
            <stop stop-color="#09005D"/>
            <stop offset="1" stop-color="#1A0F91"/>
        </linearGradient>
        <linearGradient id="paint6_linear_518_900" x1="68.4054" y1="520.299" x2="77.468" y2="520.384"
                        gradientUnits="userSpaceOnUse">
            <stop stop-color="#FEBBBA"/>
            <stop offset="1" stop-color="#FF928E"/>
        </linearGradient>
        <linearGradient id="paint7_linear_518_900" x1="110.823" y1="387.29" x2="23.1943" y2="504.064"
                        gradientUnits="userSpaceOnUse">
            <stop stop-color="#09005D"/>
            <stop offset="1" stop-color="#26304F"/>
        </linearGradient>
        <linearGradient id="paint8_linear_518_900" x1="78.9096" y1="491.186" x2="-23.8712" y2="601.191"
                        gradientUnits="userSpaceOnUse">
            <stop stop-color="#09005D"/>
            <stop offset="1" stop-color="#1A0F91"/>
        </linearGradient>
        <linearGradient id="paint9_linear_518_900" x1="35.7465" y1="519.527" x2="43.5703" y2="519.601"
                        gradientUnits="userSpaceOnUse">
            <stop stop-color="#FEBBBA"/>
            <stop offset="1" stop-color="#FF928E"/>
        </linearGradient>
        <linearGradient id="paint10_linear_518_900" x1="95.4566" y1="375.759" x2="7.82949" y2="492.531"
                        gradientUnits="userSpaceOnUse">
            <stop stop-color="#26304F"/>
            <stop offset="1" stop-color="#26304F"/>
        </linearGradient>
        <linearGradient id="paint11_linear_518_900" x1="107.938" y1="284.845" x2="154.241" y2="285.282"
                        gradientUnits="userSpaceOnUse">
            <stop stop-color="#FEBBBA"/>
            <stop offset="1" stop-color="#FF928E"/>
        </linearGradient>
        <linearGradient id="paint12_linear_518_900" x1="144.081" y1="277.583" x2="112.488" y2="347.855"
                        gradientUnits="userSpaceOnUse">
            <stop stop-color="#FEBBBA"/>
            <stop offset="1" stop-color="#FF928E"/>
        </linearGradient>
        <linearGradient id="paint13_linear_518_900" x1="154.314" y1="254.06" x2="167.418" y2="234.271"
                        gradientUnits="userSpaceOnUse">
            <stop stop-color="#FEBBBA"/>
            <stop offset="1" stop-color="#FF928E"/>
        </linearGradient>
        <linearGradient id="paint14_linear_518_900" x1="5.99984" y1="349.297" x2="64.5944" y2="349.851"
                        gradientUnits="userSpaceOnUse">
            <stop stop-color="#FEBBBA"/>
            <stop offset="1" stop-color="#FF928E"/>
        </linearGradient>
        <linearGradient id="paint15_linear_518_900" x1="49.1722" y1="317.241" x2="71.2184" y2="274.331"
                        gradientUnits="userSpaceOnUse">
            <stop stop-color="#FEBBBA"/>
            <stop offset="1" stop-color="#FF928E"/>
        </linearGradient>
        <linearGradient id="paint16_linear_518_900" x1="80.5347" y1="273.018" x2="55.2471" y2="257.219"
                        gradientUnits="userSpaceOnUse">
            <stop stop-color="#FEBBBA"/>
            <stop offset="1" stop-color="#FF928E"/>
        </linearGradient>
        <linearGradient id="paint17_linear_518_900" x1="41.8796" y1="240.821" x2="74.4723" y2="267.141"
                        gradientUnits="userSpaceOnUse">
            <stop stop-color="#09005D"/>
            <stop offset="1" stop-color="#1A0F91"/>
        </linearGradient>
        <linearGradient id="paint18_linear_518_900" x1="73.7897" y1="278.732" x2="51.038" y2="264.519"
                        gradientUnits="userSpaceOnUse">
            <stop stop-color="#FEBBBA"/>
            <stop offset="1" stop-color="#FF928E"/>
        </linearGradient>
        <linearGradient id="paint19_linear_518_900" x1="80.4032" y1="312.38" x2="112.571" y2="446.781"
                        gradientUnits="userSpaceOnUse">
            <stop stop-color="#09005D"/>
            <stop offset="1" stop-color="#1A0F91"/>
        </linearGradient>
        <linearGradient id="paint20_linear_518_900" x1="58.2467" y1="347.925" x2="76.5653" y2="347.925"
                        gradientUnits="userSpaceOnUse">
            <stop stop-color="#FEBBBA"/>
            <stop offset="1" stop-color="#FF928E"/>
        </linearGradient>
        <linearGradient id="paint21_linear_518_900" x1="423.372" y1="242.355" x2="472.339" y2="321.034"
                        gradientUnits="userSpaceOnUse">
            <stop stop-color="#FEBBBA"/>
            <stop offset="1" stop-color="#FF928E"/>
        </linearGradient>
        <linearGradient id="paint22_linear_518_900" x1="559.844" y1="235.142" x2="510.282" y2="268.283"
                        gradientUnits="userSpaceOnUse">
            <stop stop-color="#09005D"/>
            <stop offset="1" stop-color="#1A0F91"/>
        </linearGradient>
        <linearGradient id="paint23_linear_518_900" x1="483.937" y1="296.724" x2="493.11" y2="276.294"
                        gradientUnits="userSpaceOnUse">
            <stop stop-color="#FEBBBA"/>
            <stop offset="1" stop-color="#FF928E"/>
        </linearGradient>
        <linearGradient id="paint24_linear_518_900" x1="483.458" y1="247.122" x2="502.079" y2="287.54"
                        gradientUnits="userSpaceOnUse">
            <stop stop-color="#FEBBBA"/>
            <stop offset="1" stop-color="#FF928E"/>
        </linearGradient>
        <linearGradient id="paint25_linear_518_900" x1="546.501" y1="215.187" x2="496.937" y2="248.327"
                        gradientUnits="userSpaceOnUse">
            <stop stop-color="#09005D"/>
            <stop offset="1" stop-color="#1A0F91"/>
        </linearGradient>
        <linearGradient id="paint26_linear_518_900" x1="492.257" y1="243.069" x2="510.879" y2="283.485"
                        gradientUnits="userSpaceOnUse">
            <stop stop-color="#FEBBBA"/>
            <stop offset="1" stop-color="#FF928E"/>
        </linearGradient>
        <linearGradient id="paint27_linear_518_900" x1="535.691" y1="550.863" x2="467.311" y2="427.122"
                        gradientUnits="userSpaceOnUse">
            <stop stop-color="#FEBBBA"/>
            <stop offset="1" stop-color="#FF928E"/>
        </linearGradient>
        <linearGradient id="paint28_linear_518_900" x1="520.88" y1="507.257" x2="500.47" y2="507.064"
                        gradientUnits="userSpaceOnUse">
            <stop stop-color="#09005D"/>
            <stop offset="1" stop-color="#1A0F91"/>
        </linearGradient>
        <linearGradient id="paint29_linear_518_900" x1="457.419" y1="459.18" x2="561.478" y2="493.632"
                        gradientUnits="userSpaceOnUse">
            <stop stop-color="#FEBBBA"/>
            <stop offset="1" stop-color="#FF928E"/>
        </linearGradient>
        <linearGradient id="paint30_linear_518_900" x1="501.922" y1="510.757" x2="477.59" y2="510.527"
                        gradientUnits="userSpaceOnUse">
            <stop stop-color="#09005D"/>
            <stop offset="1" stop-color="#1A0F91"/>
        </linearGradient>
        <linearGradient id="paint31_linear_518_900" x1="574.364" y1="329.141" x2="515.875" y2="374.106"
                        gradientUnits="userSpaceOnUse">
            <stop stop-color="#26304F"/>
            <stop offset="1" stop-color="#26304F"/>
        </linearGradient>
        <linearGradient id="paint32_linear_518_900" x1="529.037" y1="360.195" x2="430.981" y2="214.435"
                        gradientUnits="userSpaceOnUse">
            <stop stop-color="#FEBBBA"/>
            <stop offset="1" stop-color="#FF928E"/>
        </linearGradient>
        <linearGradient id="paint33_linear_518_900" x1="319.926" y1="484.103" x2="326.31" y2="508.897"
                        gradientUnits="userSpaceOnUse">
            <stop stop-color="#09005D"/>
            <stop offset="1" stop-color="#1A0F91"/>
        </linearGradient>
        <linearGradient id="paint34_linear_518_900" x1="339.56" y1="497.735" x2="328.248" y2="495.225"
                        gradientUnits="userSpaceOnUse">
            <stop stop-color="#FEBBBA"/>
            <stop offset="1" stop-color="#FF928E"/>
        </linearGradient>
        <linearGradient id="paint35_linear_518_900" x1="361.849" y1="471.332" x2="328.83" y2="393.434"
                        gradientUnits="userSpaceOnUse">
            <stop stop-color="#09005D"/>
            <stop offset="1" stop-color="#26304F"/>
        </linearGradient>
        <linearGradient id="paint36_linear_518_900" x1="321.519" y1="508.083" x2="349.379" y2="568.194"
                        gradientUnits="userSpaceOnUse">
            <stop stop-color="#09005D"/>
            <stop offset="1" stop-color="#1A0F91"/>
        </linearGradient>
        <linearGradient id="paint37_linear_518_900" x1="338.759" y1="523.557" x2="308.337" y2="516.805"
                        gradientUnits="userSpaceOnUse">
            <stop stop-color="#4F52FF"/>
            <stop offset="1" stop-color="#4042E2"/>
        </linearGradient>
        <linearGradient id="paint38_linear_518_900" x1="345.431" y1="509.957" x2="334.813" y2="507.601"
                        gradientUnits="userSpaceOnUse">
            <stop stop-color="#FEBBBA"/>
            <stop offset="1" stop-color="#FF928E"/>
        </linearGradient>
        <linearGradient id="paint39_linear_518_900" x1="371.748" y1="508.654" x2="388.953" y2="418.177"
                        gradientUnits="userSpaceOnUse">
            <stop stop-color="#26304F"/>
            <stop offset="1" stop-color="#26304F"/>
        </linearGradient>
        <linearGradient id="paint40_linear_518_900" x1="331.951" y1="390.034" x2="294.912" y2="381.813"
                        gradientUnits="userSpaceOnUse">
            <stop stop-color="#FEBBBA"/>
            <stop offset="1" stop-color="#FF928E"/>
        </linearGradient>
        <linearGradient id="paint41_linear_518_900" x1="387.544" y1="333.927" x2="362.97" y2="328.473"
                        gradientUnits="userSpaceOnUse">
            <stop stop-color="#FEBBBA"/>
            <stop offset="1" stop-color="#FF928E"/>
        </linearGradient>
        <linearGradient id="paint42_linear_518_900" x1="407.046" y1="395.218" x2="504.314" y2="531.806"
                        gradientUnits="userSpaceOnUse">
            <stop stop-color="#FEBBBA"/>
            <stop offset="1" stop-color="#FF928E"/>
        </linearGradient>
        <linearGradient id="paint43_linear_518_900" x1="373.937" y1="302.52" x2="361.652" y2="360.308"
                        gradientUnits="userSpaceOnUse">
            <stop stop-color="#FEBBBA"/>
            <stop offset="1" stop-color="#FF928E"/>
        </linearGradient>
        <linearGradient id="paint44_linear_518_900" x1="391.014" y1="317.944" x2="366.485" y2="289.53"
                        gradientUnits="userSpaceOnUse">
            <stop stop-color="#26304F"/>
            <stop offset="1" stop-color="#26304F"/>
        </linearGradient>
        <linearGradient id="paint45_linear_518_900" x1="378.795" y1="357.589" x2="381.839" y2="321.648"
                        gradientUnits="userSpaceOnUse">
            <stop stop-color="#FEBBBA"/>
            <stop offset="1" stop-color="#FF928E"/>
        </linearGradient>
        <linearGradient id="paint46_linear_518_900" x1="376.209" y1="389.41" x2="327.607" y2="405.392"
                        gradientUnits="userSpaceOnUse">
            <stop stop-color="#09005D"/>
            <stop offset="1" stop-color="#1A0F91"/>
        </linearGradient>
        <linearGradient id="paint47_linear_518_900" x1="309.47" y1="357.559" x2="274.55" y2="394.566"
                        gradientUnits="userSpaceOnUse">
            <stop stop-color="#09005D"/>
            <stop offset="1" stop-color="#1A0F91"/>
        </linearGradient>
        <clipPath id="clip0_518_900">
            <rect width="540" height="538" fill="white"/>
        </clipPath>
    </defs>
</svg>
