<svg width="81" height="110" viewBox="0 0 81 110" fill="none" xmlns="http://www.w3.org/2000/svg">
    <g clip-path="url(#clip0_518_835)">
        <path d="M19.5136 110L12.9251 97.5847L0 103.184L22.5754 38.9064L42.089 45.703L19.5136 110Z" fill="#26304F"/>
        <path d="M14.1265 94.6305C14.1265 94.6305 14.0103 94.6305 13.9715 94.6112C13.7196 94.5146 13.5839 94.2443 13.6808 93.9933L25.9083 59.1803C26.0052 58.9292 26.2765 58.8134 26.5284 58.8906C26.7804 58.9872 26.916 59.2575 26.8191 59.5085L14.5916 94.3216C14.5141 94.5146 14.3397 94.6498 14.1265 94.6498V94.6305Z"
              fill="#493D72"/>
        <path d="M61.4865 110L68.075 97.5847L81.0001 103.184L58.4248 38.9064L38.9111 45.703L61.4865 110Z"
              fill="#26304F"/>
        <path d="M66.8734 94.6305C66.6796 94.6305 66.4859 94.5146 66.4083 94.3022L54.1808 59.4892C54.0839 59.2382 54.2196 58.9485 54.4715 58.8713C54.7234 58.7941 55.0141 58.9099 55.0916 59.1609L67.3191 93.974C67.416 94.225 67.2804 94.5146 67.0284 94.5919C66.9703 94.5919 66.9122 94.6112 66.8734 94.6112V94.6305Z"
              fill="#493D72"/>
        <path d="M77.8607 35.6047C77.8607 39.3698 72.7837 42.3047 71.6791 45.703C70.5358 49.2364 72.8612 54.5655 70.7296 57.5004C68.5593 60.4546 62.7459 59.8754 59.7617 62.0379C56.8162 64.1811 55.576 69.8771 52.0492 71.0356C48.6387 72.1362 44.2786 68.2745 40.4999 68.2745C36.7212 68.2745 32.3612 72.1362 28.9506 71.0356C25.4045 69.8964 24.1837 64.1811 21.2382 62.0379C18.2734 59.8754 12.4406 60.4546 10.2703 57.5004C8.1193 54.5655 10.464 49.2364 9.32074 45.703C8.21619 42.3047 3.13916 39.3698 3.13916 35.6047C3.13916 31.8396 8.21619 28.9047 9.32074 25.5064C10.464 21.973 8.13868 16.6438 10.2703 13.709C12.4406 10.7548 18.254 11.334 21.2382 9.17148C24.1837 7.04756 25.4238 1.35158 28.9506 0.193074C32.3612 -0.907505 36.7212 2.95418 40.4999 2.95418C44.2786 2.95418 48.6387 -0.907505 52.0492 0.193074C55.5954 1.33227 56.8162 7.04756 59.7617 9.19079C62.7265 11.3533 68.5593 10.7741 70.7296 13.7283C72.8806 16.6631 70.5358 21.9923 71.6791 25.5257C72.7837 28.924 77.8607 31.8589 77.8607 35.624V35.6047Z"
              fill="#493D72"/>
        <path d="M65.3793 41.4381C68.6052 27.7448 60.0796 14.0385 46.337 10.8242C32.5944 7.60999 18.8387 16.1049 15.6129 29.7982C12.387 43.4915 20.9126 57.1978 34.6552 60.412C48.3978 63.6263 62.1535 55.1313 65.3793 41.4381Z"
              fill="#26304F"/>
        <path d="M40.5001 19.2698L45.2671 28.8854L55.925 30.43L48.2125 37.9217L50.034 48.5027L40.5001 43.5018L30.9661 48.5027L32.7876 37.9217L25.0752 30.43L35.7331 28.8854L40.5001 19.2698Z"
              fill="#FF9D15"/>
    </g>
    <defs>
        <clipPath id="clip0_518_835">
            <rect width="81" height="110" fill="white"/>
        </clipPath>
    </defs>
</svg>
