<svg width="182" height="111" viewBox="0 0 182 111" fill="none" xmlns="http://www.w3.org/2000/svg">
    <g clip-path="url(#clip0_518_849)">
        <path d="M165.12 32.0143C165.12 41.509 157.409 49.2147 147.908 49.2147C138.407 49.2147 130.697 41.509 130.697 32.0143C130.697 22.5197 138.407 14.8139 147.908 14.8139C157.409 14.8139 165.12 22.5197 165.12 32.0143Z"
              fill="#26304F"/>
        <path d="M182 79.2673V80.2855H150.304C145.787 69.0571 135.736 60.6083 123.537 58.3241C128.328 54.251 134.524 51.8017 141.326 51.8017H154.49C169.718 51.8017 182 64.1034 182 79.2673Z"
              fill="#26304F"/>
        <path d="M16.8809 32.0143C16.8809 41.509 24.5916 49.2147 34.0922 49.2147C43.5929 49.2147 51.3036 41.509 51.3036 32.0143C51.3036 22.5197 43.5929 14.8139 34.0922 14.8139C24.5916 14.8139 16.8809 22.5197 16.8809 32.0143Z"
              fill="#26304F"/>
        <path d="M58.4636 58.3241C46.2642 60.6083 36.2403 69.0571 31.6965 80.2855H0V79.2673C0 64.0759 12.3371 51.8017 27.5107 51.8017H40.6739C47.4759 51.8017 53.672 54.251 58.4636 58.3241Z"
              fill="#26304F"/>
        <path d="M101.945 55.5589C116.616 49.5307 123.62 32.758 117.588 18.0961C111.555 3.43418 94.7721 -3.56479 80.1008 2.46345C65.4295 8.49169 58.4261 25.2644 64.4582 39.9263C70.4903 54.5882 87.2737 61.5871 101.945 55.5589Z"
              fill="#26304F"/>
        <path d="M68.0469 62.7549H113.981C132.707 62.7549 147.935 77.9463 147.935 96.6878V110.338H34.0923V96.6878C34.0923 77.9738 49.2934 62.7549 68.0469 62.7549Z"
              fill="#26304F"/>
        <path d="M102.194 65.0941H79.833L88.3974 76.7904L82.0361 98.9445L91.0135 108.439L99.991 98.9445L93.6021 76.7904L102.194 65.0941Z"
              fill="#FF9D15"/>
    </g>
    <defs>
        <clipPath id="clip0_518_849">
            <rect width="182" height="110" fill="white" transform="translate(0 0.310547)"/>
        </clipPath>
    </defs>
</svg>
