<svg width="18" height="18" viewBox="0 0 18 18" fill="none" xmlns="http://www.w3.org/2000/svg">
<path d="M9.00002 17.3333C4.39752 17.3333 0.666687 13.6025 0.666687 8.99996C0.666687 4.39746 4.39752 0.666626 9.00002 0.666626C13.6025 0.666626 17.3334 4.39746 17.3334 8.99996C17.3334 13.6025 13.6025 17.3333 9.00002 17.3333ZM9.00002 15.6666C10.7681 15.6666 12.4638 14.9642 13.7141 13.714C14.9643 12.4638 15.6667 10.7681 15.6667 8.99996C15.6667 7.23185 14.9643 5.53616 13.7141 4.28591C12.4638 3.03567 10.7681 2.33329 9.00002 2.33329C7.23191 2.33329 5.53622 3.03567 4.28598 4.28591C3.03573 5.53616 2.33335 7.23185 2.33335 8.99996C2.33335 10.7681 3.03573 12.4638 4.28598 13.714C5.53622 14.9642 7.23191 15.6666 9.00002 15.6666ZM9.00002 3.99996C9.88408 3.99996 10.7319 4.35115 11.357 4.97627C11.9822 5.60139 12.3334 6.44924 12.3334 7.33329V8.99996C12.3334 9.88401 11.9822 10.7319 11.357 11.357C10.7319 11.9821 9.88408 12.3333 9.00002 12.3333C8.11597 12.3333 7.26812 11.9821 6.643 11.357C6.01788 10.7319 5.66669 9.88401 5.66669 8.99996V7.33329C5.66669 6.44924 6.01788 5.60139 6.643 4.97627C7.26812 4.35115 8.11597 3.99996 9.00002 3.99996ZM9.00002 5.66663C8.55799 5.66663 8.13407 5.84222 7.82151 6.15478C7.50895 6.46734 7.33335 6.89126 7.33335 7.33329V8.99996C7.33335 9.44199 7.50895 9.86591 7.82151 10.1785C8.13407 10.491 8.55799 10.6666 9.00002 10.6666C9.44205 10.6666 9.86597 10.491 10.1785 10.1785C10.4911 9.86591 10.6667 9.44199 10.6667 8.99996V7.33329C10.6667 6.89126 10.4911 6.46734 10.1785 6.15478C9.86597 5.84222 9.44205 5.66663 9.00002 5.66663ZM5.59169 14.73C5.11167 14.444 4.66934 14.0991 4.27502 13.7033C4.77 13.1216 5.40087 12.6711 6.11169 12.3916C6.21414 12.3479 6.32432 12.3252 6.43571 12.3248C6.5471 12.3244 6.65744 12.3463 6.76021 12.3893C6.86298 12.4323 6.95609 12.4954 7.03404 12.575C7.11198 12.6545 7.17319 12.7489 7.21403 12.8526C7.25487 12.9562 7.27452 13.067 7.27181 13.1783C7.26911 13.2897 7.24411 13.3994 7.19829 13.5009C7.15246 13.6024 7.08675 13.6937 7.00503 13.7694C6.92332 13.8451 6.82725 13.9037 6.72252 13.9416C6.27919 14.1166 5.89502 14.39 5.59085 14.73H5.59169ZM12.3784 14.7483C12.0557 14.3914 11.653 14.1161 11.2034 13.945C11.098 13.9084 11.001 13.851 10.9182 13.7763C10.8354 13.7016 10.7684 13.6109 10.7213 13.5098C10.6742 13.4087 10.6478 13.2992 10.6438 13.1877C10.6397 13.0763 10.6581 12.9651 10.6979 12.8609C10.7376 12.7566 10.7979 12.6615 10.8751 12.5809C10.9523 12.5004 11.0448 12.4362 11.1473 12.3921C11.2498 12.3481 11.3601 12.325 11.4716 12.3244C11.5832 12.3237 11.6937 12.3454 11.7967 12.3883C12.5332 12.6684 13.1876 13.1288 13.7 13.7275C13.3038 14.1216 12.8598 14.4645 12.3784 14.7483Z" fill="white"/>
</svg>
